%TF.GenerationSoftware,KiCad,Pcbnew,5.1.10-88a1d61d58~90~ubuntu20.04.1*%
%TF.CreationDate,2021-08-01T14:30:54-04:00*%
%TF.ProjectId,MegaShield,4d656761-5368-4696-956c-642e6b696361,rev?*%
%TF.SameCoordinates,Original*%
%TF.FileFunction,Profile,NP*%
%FSLAX46Y46*%
G04 Gerber Fmt 4.6, Leading zero omitted, Abs format (unit mm)*
G04 Created by KiCad (PCBNEW 5.1.10-88a1d61d58~90~ubuntu20.04.1) date 2021-08-01 14:30:54*
%MOMM*%
%LPD*%
G01*
G04 APERTURE LIST*
%TA.AperFunction,Profile*%
%ADD10C,0.254000*%
%TD*%
%TA.AperFunction,Profile*%
%ADD11C,0.050000*%
%TD*%
G04 APERTURE END LIST*
D10*
X103898600Y-131503600D02*
X101358600Y-128963600D01*
X101358600Y-118803600D02*
X98818600Y-116263600D01*
X98818600Y-116263600D02*
X98818600Y-80878600D01*
X98818600Y-80878600D02*
X101351284Y-78516772D01*
X101351284Y-78516772D02*
X101358600Y-78503600D01*
X101358600Y-78503600D02*
X198183600Y-78503600D01*
X198183600Y-78503600D02*
X198183600Y-131503600D01*
X101358600Y-128963600D02*
X101358600Y-118803600D01*
X198183600Y-131503600D02*
X103898600Y-131503600D01*
D11*
%TO.C,J1*%
X189947390Y-123592725D02*
X190947390Y-123592725D01*
X189947390Y-126592725D02*
X189947390Y-123592725D01*
X190947390Y-126592725D02*
X189947390Y-126592725D01*
X190947390Y-123592725D02*
X190947390Y-126592725D01*
X188947390Y-119892725D02*
X185947390Y-119892725D01*
X188947390Y-120892725D02*
X188947390Y-119892725D01*
X185947390Y-120892725D02*
X188947390Y-120892725D01*
X185947390Y-119892725D02*
X185947390Y-120892725D01*
X183947390Y-123342725D02*
X184947390Y-123342725D01*
X183947390Y-126842725D02*
X183947390Y-123342725D01*
X184947390Y-126842725D02*
X183947390Y-126842725D01*
X184947390Y-123342725D02*
X184947390Y-126842725D01*
%TD*%
M02*
