%TF.GenerationSoftware,KiCad,Pcbnew,5.1.10-88a1d61d58~90~ubuntu20.04.1*%
%TF.CreationDate,2021-08-01T14:30:54-04:00*%
%TF.ProjectId,MegaShield,4d656761-5368-4696-956c-642e6b696361,rev?*%
%TF.SameCoordinates,Original*%
%TF.FileFunction,Soldermask,Top*%
%TF.FilePolarity,Negative*%
%FSLAX46Y46*%
G04 Gerber Fmt 4.6, Leading zero omitted, Abs format (unit mm)*
G04 Created by KiCad (PCBNEW 5.1.10-88a1d61d58~90~ubuntu20.04.1) date 2021-08-01 14:30:54*
%MOMM*%
%LPD*%
G01*
G04 APERTURE LIST*
%ADD10O,1.828800X3.352800*%
%ADD11O,4.304800X2.304800*%
%ADD12O,2.304800X4.304800*%
%ADD13C,1.712800*%
%ADD14C,2.184400*%
%ADD15C,1.828800*%
G04 APERTURE END LIST*
D10*
%TO.C,PWML1*%
X154698600Y-128963600D03*
X152158600Y-128963600D03*
X149618600Y-128963600D03*
X147078600Y-128963600D03*
X144538600Y-128963600D03*
X141998600Y-128963600D03*
X139458600Y-128963600D03*
X136918600Y-128963600D03*
%TD*%
%TO.C,PWMH1*%
X176288600Y-128963600D03*
X173748600Y-128963600D03*
X171208600Y-128963600D03*
X168668600Y-128963600D03*
X166128600Y-128963600D03*
X163588600Y-128963600D03*
X161048600Y-128963600D03*
X158508600Y-128963600D03*
%TD*%
%TO.C,COMMUNICATION2*%
X131838600Y-128963600D03*
X129298600Y-128963600D03*
X126758600Y-128963600D03*
X124218600Y-128963600D03*
X121678600Y-128963600D03*
X119138600Y-128963600D03*
X116598600Y-128963600D03*
X114058600Y-128963600D03*
%TD*%
%TO.C,USB1*%
G36*
G01*
X104847590Y-80070407D02*
X104847590Y-81873407D01*
G75*
G02*
X104695190Y-82025807I-152400J0D01*
G01*
X103095190Y-82025807D01*
G75*
G02*
X102942790Y-81873407I0J152400D01*
G01*
X102942790Y-80070407D01*
G75*
G02*
X103095190Y-79918007I152400J0D01*
G01*
X104695190Y-79918007D01*
G75*
G02*
X104847590Y-80070407I0J-152400D01*
G01*
G37*
G36*
G01*
X107691590Y-80070407D02*
X107691590Y-81873407D01*
G75*
G02*
X107539190Y-82025807I-152400J0D01*
G01*
X105939190Y-82025807D01*
G75*
G02*
X105786790Y-81873407I0J152400D01*
G01*
X105786790Y-80070407D01*
G75*
G02*
X105939190Y-79918007I152400J0D01*
G01*
X107539190Y-79918007D01*
G75*
G02*
X107691590Y-80070407I0J-152400D01*
G01*
G37*
%TD*%
%TO.C,R1*%
G36*
G01*
X110052559Y-81659591D02*
X110052559Y-80159591D01*
G75*
G02*
X110204959Y-80007191I152400J0D01*
G01*
X111504959Y-80007191D01*
G75*
G02*
X111657359Y-80159591I0J-152400D01*
G01*
X111657359Y-81659591D01*
G75*
G02*
X111504959Y-81811991I-152400J0D01*
G01*
X110204959Y-81811991D01*
G75*
G02*
X110052559Y-81659591I0J152400D01*
G01*
G37*
G36*
G01*
X108152559Y-81659591D02*
X108152559Y-80159591D01*
G75*
G02*
X108304959Y-80007191I152400J0D01*
G01*
X109604959Y-80007191D01*
G75*
G02*
X109757359Y-80159591I0J-152400D01*
G01*
X109757359Y-81659591D01*
G75*
G02*
X109604959Y-81811991I-152400J0D01*
G01*
X108304959Y-81811991D01*
G75*
G02*
X108152559Y-81659591I0J152400D01*
G01*
G37*
%TD*%
%TO.C,IC1*%
G36*
G01*
X128889465Y-97518950D02*
X133889465Y-97518950D01*
G75*
G02*
X134041865Y-97671350I0J-152400D01*
G01*
X134041865Y-107671350D01*
G75*
G02*
X133889465Y-107823750I-152400J0D01*
G01*
X128889465Y-107823750D01*
G75*
G02*
X128737065Y-107671350I0J152400D01*
G01*
X128737065Y-97671350D01*
G75*
G02*
X128889465Y-97518950I152400J0D01*
G01*
G37*
G36*
G01*
X136789465Y-96503950D02*
X138989465Y-96503950D01*
G75*
G02*
X139141865Y-96656350I0J-152400D01*
G01*
X139141865Y-97256350D01*
G75*
G02*
X138989465Y-97408750I-152400J0D01*
G01*
X136789465Y-97408750D01*
G75*
G02*
X136637065Y-97256350I0J152400D01*
G01*
X136637065Y-96656350D01*
G75*
G02*
X136789465Y-96503950I152400J0D01*
G01*
G37*
G36*
G01*
X136789465Y-97773950D02*
X138989465Y-97773950D01*
G75*
G02*
X139141865Y-97926350I0J-152400D01*
G01*
X139141865Y-98526350D01*
G75*
G02*
X138989465Y-98678750I-152400J0D01*
G01*
X136789465Y-98678750D01*
G75*
G02*
X136637065Y-98526350I0J152400D01*
G01*
X136637065Y-97926350D01*
G75*
G02*
X136789465Y-97773950I152400J0D01*
G01*
G37*
G36*
G01*
X136789465Y-99043950D02*
X138989465Y-99043950D01*
G75*
G02*
X139141865Y-99196350I0J-152400D01*
G01*
X139141865Y-99796350D01*
G75*
G02*
X138989465Y-99948750I-152400J0D01*
G01*
X136789465Y-99948750D01*
G75*
G02*
X136637065Y-99796350I0J152400D01*
G01*
X136637065Y-99196350D01*
G75*
G02*
X136789465Y-99043950I152400J0D01*
G01*
G37*
G36*
G01*
X136789465Y-100313950D02*
X138989465Y-100313950D01*
G75*
G02*
X139141865Y-100466350I0J-152400D01*
G01*
X139141865Y-101066350D01*
G75*
G02*
X138989465Y-101218750I-152400J0D01*
G01*
X136789465Y-101218750D01*
G75*
G02*
X136637065Y-101066350I0J152400D01*
G01*
X136637065Y-100466350D01*
G75*
G02*
X136789465Y-100313950I152400J0D01*
G01*
G37*
G36*
G01*
X136789465Y-101583950D02*
X138989465Y-101583950D01*
G75*
G02*
X139141865Y-101736350I0J-152400D01*
G01*
X139141865Y-102336350D01*
G75*
G02*
X138989465Y-102488750I-152400J0D01*
G01*
X136789465Y-102488750D01*
G75*
G02*
X136637065Y-102336350I0J152400D01*
G01*
X136637065Y-101736350D01*
G75*
G02*
X136789465Y-101583950I152400J0D01*
G01*
G37*
G36*
G01*
X136789465Y-102853950D02*
X138989465Y-102853950D01*
G75*
G02*
X139141865Y-103006350I0J-152400D01*
G01*
X139141865Y-103606350D01*
G75*
G02*
X138989465Y-103758750I-152400J0D01*
G01*
X136789465Y-103758750D01*
G75*
G02*
X136637065Y-103606350I0J152400D01*
G01*
X136637065Y-103006350D01*
G75*
G02*
X136789465Y-102853950I152400J0D01*
G01*
G37*
G36*
G01*
X123789465Y-105393950D02*
X125989465Y-105393950D01*
G75*
G02*
X126141865Y-105546350I0J-152400D01*
G01*
X126141865Y-106146350D01*
G75*
G02*
X125989465Y-106298750I-152400J0D01*
G01*
X123789465Y-106298750D01*
G75*
G02*
X123637065Y-106146350I0J152400D01*
G01*
X123637065Y-105546350D01*
G75*
G02*
X123789465Y-105393950I152400J0D01*
G01*
G37*
G36*
G01*
X123789465Y-107933950D02*
X125989465Y-107933950D01*
G75*
G02*
X126141865Y-108086350I0J-152400D01*
G01*
X126141865Y-108686350D01*
G75*
G02*
X125989465Y-108838750I-152400J0D01*
G01*
X123789465Y-108838750D01*
G75*
G02*
X123637065Y-108686350I0J152400D01*
G01*
X123637065Y-108086350D01*
G75*
G02*
X123789465Y-107933950I152400J0D01*
G01*
G37*
G36*
G01*
X123789465Y-104123950D02*
X125989465Y-104123950D01*
G75*
G02*
X126141865Y-104276350I0J-152400D01*
G01*
X126141865Y-104876350D01*
G75*
G02*
X125989465Y-105028750I-152400J0D01*
G01*
X123789465Y-105028750D01*
G75*
G02*
X123637065Y-104876350I0J152400D01*
G01*
X123637065Y-104276350D01*
G75*
G02*
X123789465Y-104123950I152400J0D01*
G01*
G37*
G36*
G01*
X123789465Y-101583950D02*
X125989465Y-101583950D01*
G75*
G02*
X126141865Y-101736350I0J-152400D01*
G01*
X126141865Y-102336350D01*
G75*
G02*
X125989465Y-102488750I-152400J0D01*
G01*
X123789465Y-102488750D01*
G75*
G02*
X123637065Y-102336350I0J152400D01*
G01*
X123637065Y-101736350D01*
G75*
G02*
X123789465Y-101583950I152400J0D01*
G01*
G37*
G36*
G01*
X123789465Y-106663950D02*
X125989465Y-106663950D01*
G75*
G02*
X126141865Y-106816350I0J-152400D01*
G01*
X126141865Y-107416350D01*
G75*
G02*
X125989465Y-107568750I-152400J0D01*
G01*
X123789465Y-107568750D01*
G75*
G02*
X123637065Y-107416350I0J152400D01*
G01*
X123637065Y-106816350D01*
G75*
G02*
X123789465Y-106663950I152400J0D01*
G01*
G37*
G36*
G01*
X123789465Y-102853950D02*
X125989465Y-102853950D01*
G75*
G02*
X126141865Y-103006350I0J-152400D01*
G01*
X126141865Y-103606350D01*
G75*
G02*
X125989465Y-103758750I-152400J0D01*
G01*
X123789465Y-103758750D01*
G75*
G02*
X123637065Y-103606350I0J152400D01*
G01*
X123637065Y-103006350D01*
G75*
G02*
X123789465Y-102853950I152400J0D01*
G01*
G37*
G36*
G01*
X136789465Y-107933950D02*
X138989465Y-107933950D01*
G75*
G02*
X139141865Y-108086350I0J-152400D01*
G01*
X139141865Y-108686350D01*
G75*
G02*
X138989465Y-108838750I-152400J0D01*
G01*
X136789465Y-108838750D01*
G75*
G02*
X136637065Y-108686350I0J152400D01*
G01*
X136637065Y-108086350D01*
G75*
G02*
X136789465Y-107933950I152400J0D01*
G01*
G37*
G36*
G01*
X136789465Y-106663950D02*
X138989465Y-106663950D01*
G75*
G02*
X139141865Y-106816350I0J-152400D01*
G01*
X139141865Y-107416350D01*
G75*
G02*
X138989465Y-107568750I-152400J0D01*
G01*
X136789465Y-107568750D01*
G75*
G02*
X136637065Y-107416350I0J152400D01*
G01*
X136637065Y-106816350D01*
G75*
G02*
X136789465Y-106663950I152400J0D01*
G01*
G37*
G36*
G01*
X136789465Y-104123950D02*
X138989465Y-104123950D01*
G75*
G02*
X139141865Y-104276350I0J-152400D01*
G01*
X139141865Y-104876350D01*
G75*
G02*
X138989465Y-105028750I-152400J0D01*
G01*
X136789465Y-105028750D01*
G75*
G02*
X136637065Y-104876350I0J152400D01*
G01*
X136637065Y-104276350D01*
G75*
G02*
X136789465Y-104123950I152400J0D01*
G01*
G37*
G36*
G01*
X123789465Y-100313950D02*
X125989465Y-100313950D01*
G75*
G02*
X126141865Y-100466350I0J-152400D01*
G01*
X126141865Y-101066350D01*
G75*
G02*
X125989465Y-101218750I-152400J0D01*
G01*
X123789465Y-101218750D01*
G75*
G02*
X123637065Y-101066350I0J152400D01*
G01*
X123637065Y-100466350D01*
G75*
G02*
X123789465Y-100313950I152400J0D01*
G01*
G37*
G36*
G01*
X123789465Y-99043950D02*
X125989465Y-99043950D01*
G75*
G02*
X126141865Y-99196350I0J-152400D01*
G01*
X126141865Y-99796350D01*
G75*
G02*
X125989465Y-99948750I-152400J0D01*
G01*
X123789465Y-99948750D01*
G75*
G02*
X123637065Y-99796350I0J152400D01*
G01*
X123637065Y-99196350D01*
G75*
G02*
X123789465Y-99043950I152400J0D01*
G01*
G37*
G36*
G01*
X123789465Y-96503950D02*
X125989465Y-96503950D01*
G75*
G02*
X126141865Y-96656350I0J-152400D01*
G01*
X126141865Y-97256350D01*
G75*
G02*
X125989465Y-97408750I-152400J0D01*
G01*
X123789465Y-97408750D01*
G75*
G02*
X123637065Y-97256350I0J152400D01*
G01*
X123637065Y-96656350D01*
G75*
G02*
X123789465Y-96503950I152400J0D01*
G01*
G37*
G36*
G01*
X136789465Y-105393950D02*
X138989465Y-105393950D01*
G75*
G02*
X139141865Y-105546350I0J-152400D01*
G01*
X139141865Y-106146350D01*
G75*
G02*
X138989465Y-106298750I-152400J0D01*
G01*
X136789465Y-106298750D01*
G75*
G02*
X136637065Y-106146350I0J152400D01*
G01*
X136637065Y-105546350D01*
G75*
G02*
X136789465Y-105393950I152400J0D01*
G01*
G37*
G36*
G01*
X123789465Y-97773950D02*
X125989465Y-97773950D01*
G75*
G02*
X126141865Y-97926350I0J-152400D01*
G01*
X126141865Y-98526350D01*
G75*
G02*
X125989465Y-98678750I-152400J0D01*
G01*
X123789465Y-98678750D01*
G75*
G02*
X123637065Y-98526350I0J152400D01*
G01*
X123637065Y-97926350D01*
G75*
G02*
X123789465Y-97773950I152400J0D01*
G01*
G37*
%TD*%
%TO.C,U$3*%
G36*
G01*
X111167065Y-96203750D02*
X113167065Y-96203750D01*
G75*
G02*
X113319465Y-96356150I0J-152400D01*
G01*
X113319465Y-98356150D01*
G75*
G02*
X113167065Y-98508550I-152400J0D01*
G01*
X111167065Y-98508550D01*
G75*
G02*
X111014665Y-98356150I0J152400D01*
G01*
X111014665Y-96356150D01*
G75*
G02*
X111167065Y-96203750I152400J0D01*
G01*
G37*
G36*
G01*
X111167065Y-92203750D02*
X113167065Y-92203750D01*
G75*
G02*
X113319465Y-92356150I0J-152400D01*
G01*
X113319465Y-94356150D01*
G75*
G02*
X113167065Y-94508550I-152400J0D01*
G01*
X111167065Y-94508550D01*
G75*
G02*
X111014665Y-94356150I0J152400D01*
G01*
X111014665Y-92356150D01*
G75*
G02*
X111167065Y-92203750I152400J0D01*
G01*
G37*
%TD*%
%TO.C,C1*%
G36*
G01*
X134469131Y-92726550D02*
X134469131Y-94226550D01*
G75*
G02*
X134316731Y-94378950I-152400J0D01*
G01*
X133016731Y-94378950D01*
G75*
G02*
X132864331Y-94226550I0J152400D01*
G01*
X132864331Y-92726550D01*
G75*
G02*
X133016731Y-92574150I152400J0D01*
G01*
X134316731Y-92574150D01*
G75*
G02*
X134469131Y-92726550I0J-152400D01*
G01*
G37*
G36*
G01*
X136369131Y-92726550D02*
X136369131Y-94226550D01*
G75*
G02*
X136216731Y-94378950I-152400J0D01*
G01*
X134916731Y-94378950D01*
G75*
G02*
X134764331Y-94226550I0J152400D01*
G01*
X134764331Y-92726550D01*
G75*
G02*
X134916731Y-92574150I152400J0D01*
G01*
X136216731Y-92574150D01*
G75*
G02*
X136369131Y-92726550I0J-152400D01*
G01*
G37*
%TD*%
%TO.C,C2*%
G36*
G01*
X130617871Y-94226550D02*
X130617871Y-92726550D01*
G75*
G02*
X130770271Y-92574150I152400J0D01*
G01*
X132070271Y-92574150D01*
G75*
G02*
X132222671Y-92726550I0J-152400D01*
G01*
X132222671Y-94226550D01*
G75*
G02*
X132070271Y-94378950I-152400J0D01*
G01*
X130770271Y-94378950D01*
G75*
G02*
X130617871Y-94226550I0J152400D01*
G01*
G37*
G36*
G01*
X128717871Y-94226550D02*
X128717871Y-92726550D01*
G75*
G02*
X128870271Y-92574150I152400J0D01*
G01*
X130170271Y-92574150D01*
G75*
G02*
X130322671Y-92726550I0J-152400D01*
G01*
X130322671Y-94226550D01*
G75*
G02*
X130170271Y-94378950I-152400J0D01*
G01*
X128870271Y-94378950D01*
G75*
G02*
X128717871Y-94226550I0J152400D01*
G01*
G37*
%TD*%
%TO.C,U$4*%
G36*
G01*
X117121412Y-94508550D02*
X115121412Y-94508550D01*
G75*
G02*
X114969012Y-94356150I0J152400D01*
G01*
X114969012Y-92356150D01*
G75*
G02*
X115121412Y-92203750I152400J0D01*
G01*
X117121412Y-92203750D01*
G75*
G02*
X117273812Y-92356150I0J-152400D01*
G01*
X117273812Y-94356150D01*
G75*
G02*
X117121412Y-94508550I-152400J0D01*
G01*
G37*
G36*
G01*
X117121412Y-98508550D02*
X115121412Y-98508550D01*
G75*
G02*
X114969012Y-98356150I0J152400D01*
G01*
X114969012Y-96356150D01*
G75*
G02*
X115121412Y-96203750I152400J0D01*
G01*
X117121412Y-96203750D01*
G75*
G02*
X117273812Y-96356150I0J-152400D01*
G01*
X117273812Y-98356150D01*
G75*
G02*
X117121412Y-98508550I-152400J0D01*
G01*
G37*
%TD*%
%TO.C,U$5*%
G36*
G01*
X113079228Y-103957350D02*
X111079228Y-103957350D01*
G75*
G02*
X110926828Y-103804950I0J152400D01*
G01*
X110926828Y-101804950D01*
G75*
G02*
X111079228Y-101652550I152400J0D01*
G01*
X113079228Y-101652550D01*
G75*
G02*
X113231628Y-101804950I0J-152400D01*
G01*
X113231628Y-103804950D01*
G75*
G02*
X113079228Y-103957350I-152400J0D01*
G01*
G37*
G36*
G01*
X113079228Y-107957350D02*
X111079228Y-107957350D01*
G75*
G02*
X110926828Y-107804950I0J152400D01*
G01*
X110926828Y-105804950D01*
G75*
G02*
X111079228Y-105652550I152400J0D01*
G01*
X113079228Y-105652550D01*
G75*
G02*
X113231628Y-105804950I0J-152400D01*
G01*
X113231628Y-107804950D01*
G75*
G02*
X113079228Y-107957350I-152400J0D01*
G01*
G37*
%TD*%
%TO.C,U$6*%
G36*
G01*
X115064621Y-105652550D02*
X117064621Y-105652550D01*
G75*
G02*
X117217021Y-105804950I0J-152400D01*
G01*
X117217021Y-107804950D01*
G75*
G02*
X117064621Y-107957350I-152400J0D01*
G01*
X115064621Y-107957350D01*
G75*
G02*
X114912221Y-107804950I0J152400D01*
G01*
X114912221Y-105804950D01*
G75*
G02*
X115064621Y-105652550I152400J0D01*
G01*
G37*
G36*
G01*
X115064621Y-101652550D02*
X117064621Y-101652550D01*
G75*
G02*
X117217021Y-101804950I0J-152400D01*
G01*
X117217021Y-103804950D01*
G75*
G02*
X117064621Y-103957350I-152400J0D01*
G01*
X115064621Y-103957350D01*
G75*
G02*
X114912221Y-103804950I0J152400D01*
G01*
X114912221Y-101804950D01*
G75*
G02*
X115064621Y-101652550I152400J0D01*
G01*
G37*
%TD*%
%TO.C,U$7*%
G36*
G01*
X147438340Y-103957350D02*
X145438340Y-103957350D01*
G75*
G02*
X145285940Y-103804950I0J152400D01*
G01*
X145285940Y-101804950D01*
G75*
G02*
X145438340Y-101652550I152400J0D01*
G01*
X147438340Y-101652550D01*
G75*
G02*
X147590740Y-101804950I0J-152400D01*
G01*
X147590740Y-103804950D01*
G75*
G02*
X147438340Y-103957350I-152400J0D01*
G01*
G37*
G36*
G01*
X147438340Y-107957350D02*
X145438340Y-107957350D01*
G75*
G02*
X145285940Y-107804950I0J152400D01*
G01*
X145285940Y-105804950D01*
G75*
G02*
X145438340Y-105652550I152400J0D01*
G01*
X147438340Y-105652550D01*
G75*
G02*
X147590740Y-105804950I0J-152400D01*
G01*
X147590740Y-107804950D01*
G75*
G02*
X147438340Y-107957350I-152400J0D01*
G01*
G37*
%TD*%
%TO.C,U$8*%
G36*
G01*
X149459318Y-105652550D02*
X151459318Y-105652550D01*
G75*
G02*
X151611718Y-105804950I0J-152400D01*
G01*
X151611718Y-107804950D01*
G75*
G02*
X151459318Y-107957350I-152400J0D01*
G01*
X149459318Y-107957350D01*
G75*
G02*
X149306918Y-107804950I0J152400D01*
G01*
X149306918Y-105804950D01*
G75*
G02*
X149459318Y-105652550I152400J0D01*
G01*
G37*
G36*
G01*
X149459318Y-101652550D02*
X151459318Y-101652550D01*
G75*
G02*
X151611718Y-101804950I0J-152400D01*
G01*
X151611718Y-103804950D01*
G75*
G02*
X151459318Y-103957350I-152400J0D01*
G01*
X149459318Y-103957350D01*
G75*
G02*
X149306918Y-103804950I0J152400D01*
G01*
X149306918Y-101804950D01*
G75*
G02*
X149459318Y-101652550I152400J0D01*
G01*
G37*
%TD*%
%TO.C,U$9*%
G36*
G01*
X145438340Y-96203750D02*
X147438340Y-96203750D01*
G75*
G02*
X147590740Y-96356150I0J-152400D01*
G01*
X147590740Y-98356150D01*
G75*
G02*
X147438340Y-98508550I-152400J0D01*
G01*
X145438340Y-98508550D01*
G75*
G02*
X145285940Y-98356150I0J152400D01*
G01*
X145285940Y-96356150D01*
G75*
G02*
X145438340Y-96203750I152400J0D01*
G01*
G37*
G36*
G01*
X145438340Y-92203750D02*
X147438340Y-92203750D01*
G75*
G02*
X147590740Y-92356150I0J-152400D01*
G01*
X147590740Y-94356150D01*
G75*
G02*
X147438340Y-94508550I-152400J0D01*
G01*
X145438340Y-94508550D01*
G75*
G02*
X145285940Y-94356150I0J152400D01*
G01*
X145285940Y-92356150D01*
G75*
G02*
X145438340Y-92203750I152400J0D01*
G01*
G37*
%TD*%
%TO.C,U$10*%
G36*
G01*
X151459318Y-94508550D02*
X149459318Y-94508550D01*
G75*
G02*
X149306918Y-94356150I0J152400D01*
G01*
X149306918Y-92356150D01*
G75*
G02*
X149459318Y-92203750I152400J0D01*
G01*
X151459318Y-92203750D01*
G75*
G02*
X151611718Y-92356150I0J-152400D01*
G01*
X151611718Y-94356150D01*
G75*
G02*
X151459318Y-94508550I-152400J0D01*
G01*
G37*
G36*
G01*
X151459318Y-98508550D02*
X149459318Y-98508550D01*
G75*
G02*
X149306918Y-98356150I0J152400D01*
G01*
X149306918Y-96356150D01*
G75*
G02*
X149459318Y-96203750I152400J0D01*
G01*
X151459318Y-96203750D01*
G75*
G02*
X151611718Y-96356150I0J-152400D01*
G01*
X151611718Y-98356150D01*
G75*
G02*
X151459318Y-98508550I-152400J0D01*
G01*
G37*
%TD*%
D11*
%TO.C,J1*%
X187457405Y-120362857D03*
D12*
X190447390Y-125092725D03*
X184470644Y-125087600D03*
%TD*%
D13*
%TO.C,U$1*%
X107149556Y-107475150D03*
X107149556Y-104975150D03*
X107149556Y-102475150D03*
X107149556Y-99975150D03*
X107149556Y-97475150D03*
X107149556Y-94975150D03*
%TD*%
%TO.C,U$12*%
X155546209Y-107475150D03*
X155546209Y-104975150D03*
X155546209Y-102475150D03*
X155546209Y-99975150D03*
X155546209Y-97475150D03*
X155546209Y-94975150D03*
%TD*%
D14*
%TO.C,J2*%
X131832740Y-125661600D03*
X131578740Y-123121600D03*
X131832740Y-120581600D03*
%TD*%
%TO.C,J3*%
X126752740Y-125661600D03*
X126498740Y-123121600D03*
X126752740Y-120581600D03*
%TD*%
%TO.C,J4*%
X124212740Y-125661600D03*
X123958740Y-123121600D03*
X124212740Y-120581600D03*
%TD*%
%TO.C,J5*%
X129292740Y-125661600D03*
X129038740Y-123121600D03*
X129292740Y-120581600D03*
%TD*%
%TO.C,IC2*%
G36*
G01*
X182186009Y-97518950D02*
X187186009Y-97518950D01*
G75*
G02*
X187338409Y-97671350I0J-152400D01*
G01*
X187338409Y-107671350D01*
G75*
G02*
X187186009Y-107823750I-152400J0D01*
G01*
X182186009Y-107823750D01*
G75*
G02*
X182033609Y-107671350I0J152400D01*
G01*
X182033609Y-97671350D01*
G75*
G02*
X182186009Y-97518950I152400J0D01*
G01*
G37*
G36*
G01*
X190086009Y-96503950D02*
X192286009Y-96503950D01*
G75*
G02*
X192438409Y-96656350I0J-152400D01*
G01*
X192438409Y-97256350D01*
G75*
G02*
X192286009Y-97408750I-152400J0D01*
G01*
X190086009Y-97408750D01*
G75*
G02*
X189933609Y-97256350I0J152400D01*
G01*
X189933609Y-96656350D01*
G75*
G02*
X190086009Y-96503950I152400J0D01*
G01*
G37*
G36*
G01*
X190086009Y-97773950D02*
X192286009Y-97773950D01*
G75*
G02*
X192438409Y-97926350I0J-152400D01*
G01*
X192438409Y-98526350D01*
G75*
G02*
X192286009Y-98678750I-152400J0D01*
G01*
X190086009Y-98678750D01*
G75*
G02*
X189933609Y-98526350I0J152400D01*
G01*
X189933609Y-97926350D01*
G75*
G02*
X190086009Y-97773950I152400J0D01*
G01*
G37*
G36*
G01*
X190086009Y-99043950D02*
X192286009Y-99043950D01*
G75*
G02*
X192438409Y-99196350I0J-152400D01*
G01*
X192438409Y-99796350D01*
G75*
G02*
X192286009Y-99948750I-152400J0D01*
G01*
X190086009Y-99948750D01*
G75*
G02*
X189933609Y-99796350I0J152400D01*
G01*
X189933609Y-99196350D01*
G75*
G02*
X190086009Y-99043950I152400J0D01*
G01*
G37*
G36*
G01*
X190086009Y-100313950D02*
X192286009Y-100313950D01*
G75*
G02*
X192438409Y-100466350I0J-152400D01*
G01*
X192438409Y-101066350D01*
G75*
G02*
X192286009Y-101218750I-152400J0D01*
G01*
X190086009Y-101218750D01*
G75*
G02*
X189933609Y-101066350I0J152400D01*
G01*
X189933609Y-100466350D01*
G75*
G02*
X190086009Y-100313950I152400J0D01*
G01*
G37*
G36*
G01*
X190086009Y-101583950D02*
X192286009Y-101583950D01*
G75*
G02*
X192438409Y-101736350I0J-152400D01*
G01*
X192438409Y-102336350D01*
G75*
G02*
X192286009Y-102488750I-152400J0D01*
G01*
X190086009Y-102488750D01*
G75*
G02*
X189933609Y-102336350I0J152400D01*
G01*
X189933609Y-101736350D01*
G75*
G02*
X190086009Y-101583950I152400J0D01*
G01*
G37*
G36*
G01*
X190086009Y-102853950D02*
X192286009Y-102853950D01*
G75*
G02*
X192438409Y-103006350I0J-152400D01*
G01*
X192438409Y-103606350D01*
G75*
G02*
X192286009Y-103758750I-152400J0D01*
G01*
X190086009Y-103758750D01*
G75*
G02*
X189933609Y-103606350I0J152400D01*
G01*
X189933609Y-103006350D01*
G75*
G02*
X190086009Y-102853950I152400J0D01*
G01*
G37*
G36*
G01*
X177086009Y-105393950D02*
X179286009Y-105393950D01*
G75*
G02*
X179438409Y-105546350I0J-152400D01*
G01*
X179438409Y-106146350D01*
G75*
G02*
X179286009Y-106298750I-152400J0D01*
G01*
X177086009Y-106298750D01*
G75*
G02*
X176933609Y-106146350I0J152400D01*
G01*
X176933609Y-105546350D01*
G75*
G02*
X177086009Y-105393950I152400J0D01*
G01*
G37*
G36*
G01*
X177086009Y-107933950D02*
X179286009Y-107933950D01*
G75*
G02*
X179438409Y-108086350I0J-152400D01*
G01*
X179438409Y-108686350D01*
G75*
G02*
X179286009Y-108838750I-152400J0D01*
G01*
X177086009Y-108838750D01*
G75*
G02*
X176933609Y-108686350I0J152400D01*
G01*
X176933609Y-108086350D01*
G75*
G02*
X177086009Y-107933950I152400J0D01*
G01*
G37*
G36*
G01*
X177086009Y-104123950D02*
X179286009Y-104123950D01*
G75*
G02*
X179438409Y-104276350I0J-152400D01*
G01*
X179438409Y-104876350D01*
G75*
G02*
X179286009Y-105028750I-152400J0D01*
G01*
X177086009Y-105028750D01*
G75*
G02*
X176933609Y-104876350I0J152400D01*
G01*
X176933609Y-104276350D01*
G75*
G02*
X177086009Y-104123950I152400J0D01*
G01*
G37*
G36*
G01*
X177086009Y-101583950D02*
X179286009Y-101583950D01*
G75*
G02*
X179438409Y-101736350I0J-152400D01*
G01*
X179438409Y-102336350D01*
G75*
G02*
X179286009Y-102488750I-152400J0D01*
G01*
X177086009Y-102488750D01*
G75*
G02*
X176933609Y-102336350I0J152400D01*
G01*
X176933609Y-101736350D01*
G75*
G02*
X177086009Y-101583950I152400J0D01*
G01*
G37*
G36*
G01*
X177086009Y-106663950D02*
X179286009Y-106663950D01*
G75*
G02*
X179438409Y-106816350I0J-152400D01*
G01*
X179438409Y-107416350D01*
G75*
G02*
X179286009Y-107568750I-152400J0D01*
G01*
X177086009Y-107568750D01*
G75*
G02*
X176933609Y-107416350I0J152400D01*
G01*
X176933609Y-106816350D01*
G75*
G02*
X177086009Y-106663950I152400J0D01*
G01*
G37*
G36*
G01*
X177086009Y-102853950D02*
X179286009Y-102853950D01*
G75*
G02*
X179438409Y-103006350I0J-152400D01*
G01*
X179438409Y-103606350D01*
G75*
G02*
X179286009Y-103758750I-152400J0D01*
G01*
X177086009Y-103758750D01*
G75*
G02*
X176933609Y-103606350I0J152400D01*
G01*
X176933609Y-103006350D01*
G75*
G02*
X177086009Y-102853950I152400J0D01*
G01*
G37*
G36*
G01*
X190086009Y-107933950D02*
X192286009Y-107933950D01*
G75*
G02*
X192438409Y-108086350I0J-152400D01*
G01*
X192438409Y-108686350D01*
G75*
G02*
X192286009Y-108838750I-152400J0D01*
G01*
X190086009Y-108838750D01*
G75*
G02*
X189933609Y-108686350I0J152400D01*
G01*
X189933609Y-108086350D01*
G75*
G02*
X190086009Y-107933950I152400J0D01*
G01*
G37*
G36*
G01*
X190086009Y-106663950D02*
X192286009Y-106663950D01*
G75*
G02*
X192438409Y-106816350I0J-152400D01*
G01*
X192438409Y-107416350D01*
G75*
G02*
X192286009Y-107568750I-152400J0D01*
G01*
X190086009Y-107568750D01*
G75*
G02*
X189933609Y-107416350I0J152400D01*
G01*
X189933609Y-106816350D01*
G75*
G02*
X190086009Y-106663950I152400J0D01*
G01*
G37*
G36*
G01*
X190086009Y-104123950D02*
X192286009Y-104123950D01*
G75*
G02*
X192438409Y-104276350I0J-152400D01*
G01*
X192438409Y-104876350D01*
G75*
G02*
X192286009Y-105028750I-152400J0D01*
G01*
X190086009Y-105028750D01*
G75*
G02*
X189933609Y-104876350I0J152400D01*
G01*
X189933609Y-104276350D01*
G75*
G02*
X190086009Y-104123950I152400J0D01*
G01*
G37*
G36*
G01*
X177086009Y-100313950D02*
X179286009Y-100313950D01*
G75*
G02*
X179438409Y-100466350I0J-152400D01*
G01*
X179438409Y-101066350D01*
G75*
G02*
X179286009Y-101218750I-152400J0D01*
G01*
X177086009Y-101218750D01*
G75*
G02*
X176933609Y-101066350I0J152400D01*
G01*
X176933609Y-100466350D01*
G75*
G02*
X177086009Y-100313950I152400J0D01*
G01*
G37*
G36*
G01*
X177086009Y-99043950D02*
X179286009Y-99043950D01*
G75*
G02*
X179438409Y-99196350I0J-152400D01*
G01*
X179438409Y-99796350D01*
G75*
G02*
X179286009Y-99948750I-152400J0D01*
G01*
X177086009Y-99948750D01*
G75*
G02*
X176933609Y-99796350I0J152400D01*
G01*
X176933609Y-99196350D01*
G75*
G02*
X177086009Y-99043950I152400J0D01*
G01*
G37*
G36*
G01*
X177086009Y-96503950D02*
X179286009Y-96503950D01*
G75*
G02*
X179438409Y-96656350I0J-152400D01*
G01*
X179438409Y-97256350D01*
G75*
G02*
X179286009Y-97408750I-152400J0D01*
G01*
X177086009Y-97408750D01*
G75*
G02*
X176933609Y-97256350I0J152400D01*
G01*
X176933609Y-96656350D01*
G75*
G02*
X177086009Y-96503950I152400J0D01*
G01*
G37*
G36*
G01*
X190086009Y-105393950D02*
X192286009Y-105393950D01*
G75*
G02*
X192438409Y-105546350I0J-152400D01*
G01*
X192438409Y-106146350D01*
G75*
G02*
X192286009Y-106298750I-152400J0D01*
G01*
X190086009Y-106298750D01*
G75*
G02*
X189933609Y-106146350I0J152400D01*
G01*
X189933609Y-105546350D01*
G75*
G02*
X190086009Y-105393950I152400J0D01*
G01*
G37*
G36*
G01*
X177086009Y-97773950D02*
X179286009Y-97773950D01*
G75*
G02*
X179438409Y-97926350I0J-152400D01*
G01*
X179438409Y-98526350D01*
G75*
G02*
X179286009Y-98678750I-152400J0D01*
G01*
X177086009Y-98678750D01*
G75*
G02*
X176933609Y-98526350I0J152400D01*
G01*
X176933609Y-97926350D01*
G75*
G02*
X177086009Y-97773950I152400J0D01*
G01*
G37*
%TD*%
%TO.C,U$2*%
G36*
G01*
X167110234Y-96203750D02*
X169110234Y-96203750D01*
G75*
G02*
X169262634Y-96356150I0J-152400D01*
G01*
X169262634Y-98356150D01*
G75*
G02*
X169110234Y-98508550I-152400J0D01*
G01*
X167110234Y-98508550D01*
G75*
G02*
X166957834Y-98356150I0J152400D01*
G01*
X166957834Y-96356150D01*
G75*
G02*
X167110234Y-96203750I152400J0D01*
G01*
G37*
G36*
G01*
X167110234Y-92203750D02*
X169110234Y-92203750D01*
G75*
G02*
X169262634Y-92356150I0J-152400D01*
G01*
X169262634Y-94356150D01*
G75*
G02*
X169110234Y-94508550I-152400J0D01*
G01*
X167110234Y-94508550D01*
G75*
G02*
X166957834Y-94356150I0J152400D01*
G01*
X166957834Y-92356150D01*
G75*
G02*
X167110234Y-92203750I152400J0D01*
G01*
G37*
%TD*%
%TO.C,C3*%
G36*
G01*
X187778059Y-92726550D02*
X187778059Y-94226550D01*
G75*
G02*
X187625659Y-94378950I-152400J0D01*
G01*
X186325659Y-94378950D01*
G75*
G02*
X186173259Y-94226550I0J152400D01*
G01*
X186173259Y-92726550D01*
G75*
G02*
X186325659Y-92574150I152400J0D01*
G01*
X187625659Y-92574150D01*
G75*
G02*
X187778059Y-92726550I0J-152400D01*
G01*
G37*
G36*
G01*
X189678059Y-92726550D02*
X189678059Y-94226550D01*
G75*
G02*
X189525659Y-94378950I-152400J0D01*
G01*
X188225659Y-94378950D01*
G75*
G02*
X188073259Y-94226550I0J152400D01*
G01*
X188073259Y-92726550D01*
G75*
G02*
X188225659Y-92574150I152400J0D01*
G01*
X189525659Y-92574150D01*
G75*
G02*
X189678059Y-92726550I0J-152400D01*
G01*
G37*
%TD*%
%TO.C,C4*%
G36*
G01*
X183925593Y-94251238D02*
X183925593Y-92751238D01*
G75*
G02*
X184077993Y-92598838I152400J0D01*
G01*
X185377993Y-92598838D01*
G75*
G02*
X185530393Y-92751238I0J-152400D01*
G01*
X185530393Y-94251238D01*
G75*
G02*
X185377993Y-94403638I-152400J0D01*
G01*
X184077993Y-94403638D01*
G75*
G02*
X183925593Y-94251238I0J152400D01*
G01*
G37*
G36*
G01*
X182025593Y-94251238D02*
X182025593Y-92751238D01*
G75*
G02*
X182177993Y-92598838I152400J0D01*
G01*
X183477993Y-92598838D01*
G75*
G02*
X183630393Y-92751238I0J-152400D01*
G01*
X183630393Y-94251238D01*
G75*
G02*
X183477993Y-94403638I-152400J0D01*
G01*
X182177993Y-94403638D01*
G75*
G02*
X182025593Y-94251238I0J152400D01*
G01*
G37*
%TD*%
%TO.C,U$11*%
G36*
G01*
X172812656Y-94508550D02*
X170812656Y-94508550D01*
G75*
G02*
X170660256Y-94356150I0J152400D01*
G01*
X170660256Y-92356150D01*
G75*
G02*
X170812656Y-92203750I152400J0D01*
G01*
X172812656Y-92203750D01*
G75*
G02*
X172965056Y-92356150I0J-152400D01*
G01*
X172965056Y-94356150D01*
G75*
G02*
X172812656Y-94508550I-152400J0D01*
G01*
G37*
G36*
G01*
X172812656Y-98508550D02*
X170812656Y-98508550D01*
G75*
G02*
X170660256Y-98356150I0J152400D01*
G01*
X170660256Y-96356150D01*
G75*
G02*
X170812656Y-96203750I152400J0D01*
G01*
X172812656Y-96203750D01*
G75*
G02*
X172965056Y-96356150I0J-152400D01*
G01*
X172965056Y-98356150D01*
G75*
G02*
X172812656Y-98508550I-152400J0D01*
G01*
G37*
%TD*%
%TO.C,U$13*%
G36*
G01*
X167840234Y-103957350D02*
X165840234Y-103957350D01*
G75*
G02*
X165687834Y-103804950I0J152400D01*
G01*
X165687834Y-101804950D01*
G75*
G02*
X165840234Y-101652550I152400J0D01*
G01*
X167840234Y-101652550D01*
G75*
G02*
X167992634Y-101804950I0J-152400D01*
G01*
X167992634Y-103804950D01*
G75*
G02*
X167840234Y-103957350I-152400J0D01*
G01*
G37*
G36*
G01*
X167840234Y-107957350D02*
X165840234Y-107957350D01*
G75*
G02*
X165687834Y-107804950I0J152400D01*
G01*
X165687834Y-105804950D01*
G75*
G02*
X165840234Y-105652550I152400J0D01*
G01*
X167840234Y-105652550D01*
G75*
G02*
X167992634Y-105804950I0J-152400D01*
G01*
X167992634Y-107804950D01*
G75*
G02*
X167840234Y-107957350I-152400J0D01*
G01*
G37*
%TD*%
%TO.C,U$14*%
G36*
G01*
X169542656Y-105652550D02*
X171542656Y-105652550D01*
G75*
G02*
X171695056Y-105804950I0J-152400D01*
G01*
X171695056Y-107804950D01*
G75*
G02*
X171542656Y-107957350I-152400J0D01*
G01*
X169542656Y-107957350D01*
G75*
G02*
X169390256Y-107804950I0J152400D01*
G01*
X169390256Y-105804950D01*
G75*
G02*
X169542656Y-105652550I152400J0D01*
G01*
G37*
G36*
G01*
X169542656Y-101652550D02*
X171542656Y-101652550D01*
G75*
G02*
X171695056Y-101804950I0J-152400D01*
G01*
X171695056Y-103804950D01*
G75*
G02*
X171542656Y-103957350I-152400J0D01*
G01*
X169542656Y-103957350D01*
G75*
G02*
X169390256Y-103804950I0J152400D01*
G01*
X169390256Y-101804950D01*
G75*
G02*
X169542656Y-101652550I152400J0D01*
G01*
G37*
%TD*%
D13*
%TO.C,U$20*%
X161546318Y-107475150D03*
X161546318Y-104975150D03*
X161546318Y-102475150D03*
X161546318Y-99975150D03*
X161546318Y-97475150D03*
X161546318Y-94975150D03*
%TD*%
D14*
%TO.C,J6*%
X130286171Y-86099225D03*
X127746171Y-86353225D03*
X125206171Y-86099225D03*
%TD*%
%TO.C,J7*%
X130290112Y-88648532D03*
X127750112Y-88902532D03*
X125210112Y-88648532D03*
%TD*%
D10*
%TO.C,COMMUNICATION1*%
X149618600Y-80703600D03*
X147078600Y-80703600D03*
X144538600Y-80703600D03*
X141998600Y-80703600D03*
X139458600Y-80703600D03*
X136918600Y-80703600D03*
X134378600Y-80703600D03*
X131838600Y-80703600D03*
%TD*%
D15*
%TO.C,JP3*%
X106439712Y-126423913D03*
X106439712Y-128963913D03*
X103899712Y-126423913D03*
X103899712Y-128963913D03*
%TD*%
%TO.C,JP4*%
X106441175Y-85784582D03*
X106441175Y-88324582D03*
X103901175Y-85784582D03*
X103901175Y-88324582D03*
%TD*%
%TO.C,R2*%
G36*
G01*
X184051350Y-116821222D02*
X184051350Y-118321222D01*
G75*
G02*
X183898950Y-118473622I-152400J0D01*
G01*
X182598950Y-118473622D01*
G75*
G02*
X182446550Y-118321222I0J152400D01*
G01*
X182446550Y-116821222D01*
G75*
G02*
X182598950Y-116668822I152400J0D01*
G01*
X183898950Y-116668822D01*
G75*
G02*
X184051350Y-116821222I0J-152400D01*
G01*
G37*
G36*
G01*
X185951350Y-116821222D02*
X185951350Y-118321222D01*
G75*
G02*
X185798950Y-118473622I-152400J0D01*
G01*
X184498950Y-118473622D01*
G75*
G02*
X184346550Y-118321222I0J152400D01*
G01*
X184346550Y-116821222D01*
G75*
G02*
X184498950Y-116668822I152400J0D01*
G01*
X185798950Y-116668822D01*
G75*
G02*
X185951350Y-116821222I0J-152400D01*
G01*
G37*
%TD*%
%TO.C,12VPOWER1*%
G36*
G01*
X189834103Y-118457357D02*
X189834103Y-116654357D01*
G75*
G02*
X189986503Y-116501957I152400J0D01*
G01*
X191586503Y-116501957D01*
G75*
G02*
X191738903Y-116654357I0J-152400D01*
G01*
X191738903Y-118457357D01*
G75*
G02*
X191586503Y-118609757I-152400J0D01*
G01*
X189986503Y-118609757D01*
G75*
G02*
X189834103Y-118457357I0J152400D01*
G01*
G37*
G36*
G01*
X186990103Y-118457357D02*
X186990103Y-116654357D01*
G75*
G02*
X187142503Y-116501957I152400J0D01*
G01*
X188742503Y-116501957D01*
G75*
G02*
X188894903Y-116654357I0J-152400D01*
G01*
X188894903Y-118457357D01*
G75*
G02*
X188742503Y-118609757I-152400J0D01*
G01*
X187142503Y-118609757D01*
G75*
G02*
X186990103Y-118457357I0J152400D01*
G01*
G37*
%TD*%
%TO.C,C5*%
G36*
G01*
X181021000Y-124553600D02*
X181021000Y-125753600D01*
G75*
G02*
X180868600Y-125906000I-152400J0D01*
G01*
X180068600Y-125906000D01*
G75*
G02*
X179916200Y-125753600I0J152400D01*
G01*
X179916200Y-124553600D01*
G75*
G02*
X180068600Y-124401200I152400J0D01*
G01*
X180868600Y-124401200D01*
G75*
G02*
X181021000Y-124553600I0J-152400D01*
G01*
G37*
G36*
G01*
X182821000Y-124553600D02*
X182821000Y-125753600D01*
G75*
G02*
X182668600Y-125906000I-152400J0D01*
G01*
X181868600Y-125906000D01*
G75*
G02*
X181716200Y-125753600I0J152400D01*
G01*
X181716200Y-124553600D01*
G75*
G02*
X181868600Y-124401200I152400J0D01*
G01*
X182668600Y-124401200D01*
G75*
G02*
X182821000Y-124553600I0J-152400D01*
G01*
G37*
%TD*%
%TO.C,C6*%
G36*
G01*
X110278700Y-129563600D02*
X110278700Y-128363600D01*
G75*
G02*
X110431100Y-128211200I152400J0D01*
G01*
X111231100Y-128211200D01*
G75*
G02*
X111383500Y-128363600I0J-152400D01*
G01*
X111383500Y-129563600D01*
G75*
G02*
X111231100Y-129716000I-152400J0D01*
G01*
X110431100Y-129716000D01*
G75*
G02*
X110278700Y-129563600I0J152400D01*
G01*
G37*
G36*
G01*
X108478700Y-129563600D02*
X108478700Y-128363600D01*
G75*
G02*
X108631100Y-128211200I152400J0D01*
G01*
X109431100Y-128211200D01*
G75*
G02*
X109583500Y-128363600I0J-152400D01*
G01*
X109583500Y-129563600D01*
G75*
G02*
X109431100Y-129716000I-152400J0D01*
G01*
X108631100Y-129716000D01*
G75*
G02*
X108478700Y-129563600I0J152400D01*
G01*
G37*
%TD*%
M02*
