%TF.GenerationSoftware,KiCad,Pcbnew,5.1.10-88a1d61d58~90~ubuntu20.04.1*%
%TF.CreationDate,2021-08-01T14:30:54-04:00*%
%TF.ProjectId,MegaShield,4d656761-5368-4696-956c-642e6b696361,rev?*%
%TF.SameCoordinates,Original*%
%TF.FileFunction,Copper,L1,Top*%
%TF.FilePolarity,Positive*%
%FSLAX46Y46*%
G04 Gerber Fmt 4.6, Leading zero omitted, Abs format (unit mm)*
G04 Created by KiCad (PCBNEW 5.1.10-88a1d61d58~90~ubuntu20.04.1) date 2021-08-01 14:30:54*
%MOMM*%
%LPD*%
G01*
G04 APERTURE LIST*
%TA.AperFunction,ComponentPad*%
%ADD10O,1.524000X3.048000*%
%TD*%
%TA.AperFunction,SMDPad,CuDef*%
%ADD11R,1.600000X1.803000*%
%TD*%
%TA.AperFunction,SMDPad,CuDef*%
%ADD12R,1.300000X1.500000*%
%TD*%
%TA.AperFunction,SMDPad,CuDef*%
%ADD13R,5.000000X10.000000*%
%TD*%
%TA.AperFunction,SMDPad,CuDef*%
%ADD14R,2.200000X0.600000*%
%TD*%
%TA.AperFunction,SMDPad,CuDef*%
%ADD15R,2.000000X2.000000*%
%TD*%
%TA.AperFunction,ComponentPad*%
%ADD16O,4.000000X2.000000*%
%TD*%
%TA.AperFunction,ComponentPad*%
%ADD17O,2.000000X4.000000*%
%TD*%
%TA.AperFunction,ComponentPad*%
%ADD18C,1.408000*%
%TD*%
%TA.AperFunction,ComponentPad*%
%ADD19C,1.879600*%
%TD*%
%TA.AperFunction,ComponentPad*%
%ADD20C,1.524000*%
%TD*%
%TA.AperFunction,SMDPad,CuDef*%
%ADD21R,0.800000X1.200000*%
%TD*%
%TA.AperFunction,ViaPad*%
%ADD22C,1.108000*%
%TD*%
%TA.AperFunction,ViaPad*%
%ADD23C,0.858000*%
%TD*%
%TA.AperFunction,Conductor*%
%ADD24C,0.406400*%
%TD*%
%TA.AperFunction,Conductor*%
%ADD25C,0.609600*%
%TD*%
%TA.AperFunction,Conductor*%
%ADD26C,1.422400*%
%TD*%
%TA.AperFunction,Conductor*%
%ADD27C,1.676400*%
%TD*%
%TA.AperFunction,Conductor*%
%ADD28C,0.812800*%
%TD*%
%TA.AperFunction,Conductor*%
%ADD29C,1.016000*%
%TD*%
G04 APERTURE END LIST*
D10*
%TO.P,PWML1,8*%
%TO.N,/IN3*%
X154698600Y-128963600D03*
%TO.P,PWML1,7*%
%TO.N,/IN2*%
X152158600Y-128963600D03*
%TO.P,PWML1,6*%
%TO.N,/ENA*%
X149618600Y-128963600D03*
%TO.P,PWML1,5*%
%TO.N,/IN1*%
X147078600Y-128963600D03*
%TO.P,PWML1,4*%
%TO.N,/INC3B*%
X144538600Y-128963600D03*
%TO.P,PWML1,3*%
%TO.N,/INC3A*%
X141998600Y-128963600D03*
%TO.P,PWML1,2*%
%TO.N,Net-(PWML1-Pad2)*%
X139458600Y-128963600D03*
%TO.P,PWML1,1*%
%TO.N,Net-(PWML1-Pad1)*%
X136918600Y-128963600D03*
%TD*%
%TO.P,PWMH1,8*%
%TO.N,Net-(PWMH1-Pad8)*%
X176288600Y-128963600D03*
%TO.P,PWMH1,7*%
%TO.N,Net-(PWMH1-Pad7)*%
X173748600Y-128963600D03*
%TO.P,PWMH1,6*%
%TO.N,Net-(PWMH1-Pad6)*%
X171208600Y-128963600D03*
%TO.P,PWMH1,5*%
%TO.N,/IN6*%
X168668600Y-128963600D03*
%TO.P,PWMH1,4*%
%TO.N,/IN5*%
X166128600Y-128963600D03*
%TO.P,PWMH1,3*%
%TO.N,/ENC*%
X163588600Y-128963600D03*
%TO.P,PWMH1,2*%
%TO.N,/IN4*%
X161048600Y-128963600D03*
%TO.P,PWMH1,1*%
%TO.N,/ENB*%
X158508600Y-128963600D03*
%TD*%
%TO.P,COMMUNICATION2,8*%
%TO.N,/AUX4*%
X131838600Y-128963600D03*
%TO.P,COMMUNICATION2,7*%
%TO.N,/AUX3*%
X129298600Y-128963600D03*
%TO.P,COMMUNICATION2,6*%
%TO.N,/AUX2*%
X126758600Y-128963600D03*
%TO.P,COMMUNICATION2,5*%
%TO.N,/AUX1*%
X124218600Y-128963600D03*
%TO.P,COMMUNICATION2,4*%
%TO.N,/INC2B*%
X121678600Y-128963600D03*
%TO.P,COMMUNICATION2,3*%
%TO.N,/INC2A*%
X119138600Y-128963600D03*
%TO.P,COMMUNICATION2,2*%
%TO.N,/INC1A*%
X116598600Y-128963600D03*
%TO.P,COMMUNICATION2,1*%
%TO.N,/INC1B*%
X114058600Y-128963600D03*
%TD*%
D11*
%TO.P,USB1,C*%
%TO.N,/GND*%
X103895190Y-80971907D03*
%TO.P,USB1,A*%
%TO.N,Net-(R1-Pad1)*%
X106739190Y-80971907D03*
%TD*%
D12*
%TO.P,R1,2*%
%TO.N,/5V*%
X110854959Y-80909591D03*
%TO.P,R1,1*%
%TO.N,Net-(R1-Pad1)*%
X108954959Y-80909591D03*
%TD*%
D13*
%TO.P,IC1,HEAT*%
%TO.N,/GND*%
X131389465Y-102671350D03*
D14*
%TO.P,IC1,20*%
%TO.N,N/C*%
X137889465Y-96956350D03*
%TO.P,IC1,19*%
%TO.N,/GND*%
X137889465Y-98226350D03*
%TO.P,IC1,18*%
%TO.N,N/C*%
X137889465Y-99496350D03*
%TO.P,IC1,17*%
%TO.N,/M2-*%
X137889465Y-100766350D03*
%TO.P,IC1,16*%
%TO.N,/M2+*%
X137889465Y-102036350D03*
%TO.P,IC1,15*%
%TO.N,/IN4*%
X137889465Y-103306350D03*
%TO.P,IC1,8*%
%TO.N,/ENA*%
X124889465Y-105846350D03*
%TO.P,IC1,10*%
%TO.N,N/C*%
X124889465Y-108386350D03*
%TO.P,IC1,7*%
%TO.N,/IN1*%
X124889465Y-104576350D03*
%TO.P,IC1,5*%
%TO.N,/M1-*%
X124889465Y-102036350D03*
%TO.P,IC1,9*%
%TO.N,/IN2*%
X124889465Y-107116350D03*
%TO.P,IC1,6*%
%TO.N,/12V*%
X124889465Y-103306350D03*
%TO.P,IC1,11*%
%TO.N,N/C*%
X137889465Y-108386350D03*
%TO.P,IC1,12*%
%TO.N,/5V*%
X137889465Y-107116350D03*
%TO.P,IC1,14*%
%TO.N,/ENB*%
X137889465Y-104576350D03*
%TO.P,IC1,4*%
%TO.N,/M1+*%
X124889465Y-100766350D03*
%TO.P,IC1,3*%
%TO.N,N/C*%
X124889465Y-99496350D03*
%TO.P,IC1,1*%
%TO.N,/GND*%
X124889465Y-96956350D03*
%TO.P,IC1,13*%
%TO.N,/IN3*%
X137889465Y-105846350D03*
%TO.P,IC1,2*%
%TO.N,/GND*%
X124889465Y-98226350D03*
%TD*%
D15*
%TO.P,U$3,A*%
%TO.N,/M1+*%
X112167065Y-97356150D03*
%TO.P,U$3,C*%
%TO.N,/12V*%
X112167065Y-93356150D03*
%TD*%
D12*
%TO.P,C1,2*%
%TO.N,/GND*%
X133666731Y-93476550D03*
%TO.P,C1,1*%
%TO.N,/5V*%
X135566731Y-93476550D03*
%TD*%
%TO.P,C2,2*%
%TO.N,/GND*%
X131420271Y-93476550D03*
%TO.P,C2,1*%
%TO.N,/12V*%
X129520271Y-93476550D03*
%TD*%
D15*
%TO.P,U$4,A*%
%TO.N,/GND*%
X116121412Y-93356150D03*
%TO.P,U$4,C*%
%TO.N,/M1+*%
X116121412Y-97356150D03*
%TD*%
%TO.P,U$5,A*%
%TO.N,/M1-*%
X112079228Y-102804950D03*
%TO.P,U$5,C*%
%TO.N,/12V*%
X112079228Y-106804950D03*
%TD*%
%TO.P,U$6,A*%
%TO.N,/GND*%
X116064621Y-106804950D03*
%TO.P,U$6,C*%
%TO.N,/M1-*%
X116064621Y-102804950D03*
%TD*%
%TO.P,U$7,A*%
%TO.N,/M2+*%
X146438340Y-102804950D03*
%TO.P,U$7,C*%
%TO.N,/12V*%
X146438340Y-106804950D03*
%TD*%
%TO.P,U$8,A*%
%TO.N,/GND*%
X150459318Y-106804950D03*
%TO.P,U$8,C*%
%TO.N,/M2+*%
X150459318Y-102804950D03*
%TD*%
%TO.P,U$9,A*%
%TO.N,/M2-*%
X146438340Y-97356150D03*
%TO.P,U$9,C*%
%TO.N,/12V*%
X146438340Y-93356150D03*
%TD*%
%TO.P,U$10,A*%
%TO.N,/GND*%
X150459318Y-93356150D03*
%TO.P,U$10,C*%
%TO.N,/M2-*%
X150459318Y-97356150D03*
%TD*%
D16*
%TO.P,J1,2*%
%TO.N,Net-(J1-Pad2)*%
X187457405Y-120362857D03*
D17*
%TO.P,J1,3*%
%TO.N,/GND*%
X190447390Y-125092725D03*
%TO.P,J1,1*%
%TO.N,/12V*%
X184470644Y-125087600D03*
%TD*%
D18*
%TO.P,U$1,P$6*%
%TO.N,/INC1B*%
X107149556Y-107475150D03*
%TO.P,U$1,P$5*%
%TO.N,/INC1A*%
X107149556Y-104975150D03*
%TO.P,U$1,P$4*%
%TO.N,/GND*%
X107149556Y-102475150D03*
%TO.P,U$1,P$3*%
%TO.N,/5V*%
X107149556Y-99975150D03*
%TO.P,U$1,P$2*%
%TO.N,/M1-*%
X107149556Y-97475150D03*
%TO.P,U$1,P$1*%
%TO.N,/M1+*%
X107149556Y-94975150D03*
%TD*%
%TO.P,U$12,P$6*%
%TO.N,/INC2B*%
X155546209Y-107475150D03*
%TO.P,U$12,P$5*%
%TO.N,/INC2A*%
X155546209Y-104975150D03*
%TO.P,U$12,P$4*%
%TO.N,/GND*%
X155546209Y-102475150D03*
%TO.P,U$12,P$3*%
%TO.N,/5V*%
X155546209Y-99975150D03*
%TO.P,U$12,P$2*%
%TO.N,/M2+*%
X155546209Y-97475150D03*
%TO.P,U$12,P$1*%
%TO.N,/M2-*%
X155546209Y-94975150D03*
%TD*%
D19*
%TO.P,J2,3*%
%TO.N,/AUX4*%
X131832740Y-125661600D03*
%TO.P,J2,2*%
%TO.N,/5V*%
X131578740Y-123121600D03*
%TO.P,J2,1*%
%TO.N,/GND*%
X131832740Y-120581600D03*
%TD*%
%TO.P,J3,3*%
%TO.N,/AUX2*%
X126752740Y-125661600D03*
%TO.P,J3,2*%
%TO.N,/5V*%
X126498740Y-123121600D03*
%TO.P,J3,1*%
%TO.N,/GND*%
X126752740Y-120581600D03*
%TD*%
%TO.P,J4,3*%
%TO.N,/AUX1*%
X124212740Y-125661600D03*
%TO.P,J4,2*%
%TO.N,/5V*%
X123958740Y-123121600D03*
%TO.P,J4,1*%
%TO.N,/GND*%
X124212740Y-120581600D03*
%TD*%
%TO.P,J5,3*%
%TO.N,/AUX3*%
X129292740Y-125661600D03*
%TO.P,J5,2*%
%TO.N,/5V*%
X129038740Y-123121600D03*
%TO.P,J5,1*%
%TO.N,/GND*%
X129292740Y-120581600D03*
%TD*%
D13*
%TO.P,IC2,HEAT*%
%TO.N,/GND*%
X184686009Y-102671350D03*
D14*
%TO.P,IC2,20*%
%TO.N,N/C*%
X191186009Y-96956350D03*
%TO.P,IC2,19*%
%TO.N,/GND*%
X191186009Y-98226350D03*
%TO.P,IC2,18*%
%TO.N,N/C*%
X191186009Y-99496350D03*
%TO.P,IC2,17*%
%TO.N,/M4-*%
X191186009Y-100766350D03*
%TO.P,IC2,16*%
%TO.N,/M4+*%
X191186009Y-102036350D03*
%TO.P,IC2,15*%
%TO.N,/IN8*%
X191186009Y-103306350D03*
%TO.P,IC2,8*%
%TO.N,/ENC*%
X178186009Y-105846350D03*
%TO.P,IC2,10*%
%TO.N,N/C*%
X178186009Y-108386350D03*
%TO.P,IC2,7*%
%TO.N,/IN5*%
X178186009Y-104576350D03*
%TO.P,IC2,5*%
%TO.N,/M3-*%
X178186009Y-102036350D03*
%TO.P,IC2,9*%
%TO.N,/IN6*%
X178186009Y-107116350D03*
%TO.P,IC2,6*%
%TO.N,/12V*%
X178186009Y-103306350D03*
%TO.P,IC2,11*%
%TO.N,N/C*%
X191186009Y-108386350D03*
%TO.P,IC2,12*%
%TO.N,/5V*%
X191186009Y-107116350D03*
%TO.P,IC2,14*%
%TO.N,/END*%
X191186009Y-104576350D03*
%TO.P,IC2,4*%
%TO.N,/M3+*%
X178186009Y-100766350D03*
%TO.P,IC2,3*%
%TO.N,N/C*%
X178186009Y-99496350D03*
%TO.P,IC2,1*%
%TO.N,/GND*%
X178186009Y-96956350D03*
%TO.P,IC2,13*%
%TO.N,/IN7*%
X191186009Y-105846350D03*
%TO.P,IC2,2*%
%TO.N,/GND*%
X178186009Y-98226350D03*
%TD*%
D15*
%TO.P,U$2,A*%
%TO.N,/M3+*%
X168110234Y-97356150D03*
%TO.P,U$2,C*%
%TO.N,/12V*%
X168110234Y-93356150D03*
%TD*%
D12*
%TO.P,C3,2*%
%TO.N,/GND*%
X186975659Y-93476550D03*
%TO.P,C3,1*%
%TO.N,/5V*%
X188875659Y-93476550D03*
%TD*%
%TO.P,C4,2*%
%TO.N,/GND*%
X184727993Y-93501238D03*
%TO.P,C4,1*%
%TO.N,/12V*%
X182827993Y-93501238D03*
%TD*%
D15*
%TO.P,U$11,A*%
%TO.N,/GND*%
X171812656Y-93356150D03*
%TO.P,U$11,C*%
%TO.N,/M3+*%
X171812656Y-97356150D03*
%TD*%
%TO.P,U$13,A*%
%TO.N,/M3-*%
X166840234Y-102804950D03*
%TO.P,U$13,C*%
%TO.N,/12V*%
X166840234Y-106804950D03*
%TD*%
%TO.P,U$14,A*%
%TO.N,/GND*%
X170542656Y-106804950D03*
%TO.P,U$14,C*%
%TO.N,/M3-*%
X170542656Y-102804950D03*
%TD*%
D18*
%TO.P,U$20,P$6*%
%TO.N,/INC3B*%
X161546318Y-107475150D03*
%TO.P,U$20,P$5*%
%TO.N,/INC3A*%
X161546318Y-104975150D03*
%TO.P,U$20,P$4*%
%TO.N,/GND*%
X161546318Y-102475150D03*
%TO.P,U$20,P$3*%
%TO.N,/5V*%
X161546318Y-99975150D03*
%TO.P,U$20,P$2*%
%TO.N,/M3-*%
X161546318Y-97475150D03*
%TO.P,U$20,P$1*%
%TO.N,/M3+*%
X161546318Y-94975150D03*
%TD*%
D19*
%TO.P,J6,3*%
%TO.N,/AUX5*%
X130286171Y-86099225D03*
%TO.P,J6,2*%
%TO.N,/5V*%
X127746171Y-86353225D03*
%TO.P,J6,1*%
%TO.N,/GND*%
X125206171Y-86099225D03*
%TD*%
%TO.P,J7,3*%
%TO.N,/AUX6*%
X130290112Y-88648532D03*
%TO.P,J7,2*%
%TO.N,/5V*%
X127750112Y-88902532D03*
%TO.P,J7,1*%
%TO.N,/GND*%
X125210112Y-88648532D03*
%TD*%
D10*
%TO.P,COMMUNICATION1,8*%
%TO.N,Net-(COMMUNICATION1-Pad8)*%
X149618600Y-80703600D03*
%TO.P,COMMUNICATION1,7*%
%TO.N,Net-(COMMUNICATION1-Pad7)*%
X147078600Y-80703600D03*
%TO.P,COMMUNICATION1,6*%
%TO.N,Net-(COMMUNICATION1-Pad6)*%
X144538600Y-80703600D03*
%TO.P,COMMUNICATION1,5*%
%TO.N,Net-(COMMUNICATION1-Pad5)*%
X141998600Y-80703600D03*
%TO.P,COMMUNICATION1,4*%
%TO.N,Net-(COMMUNICATION1-Pad4)*%
X139458600Y-80703600D03*
%TO.P,COMMUNICATION1,3*%
%TO.N,Net-(COMMUNICATION1-Pad3)*%
X136918600Y-80703600D03*
%TO.P,COMMUNICATION1,2*%
%TO.N,/AUX6*%
X134378600Y-80703600D03*
%TO.P,COMMUNICATION1,1*%
%TO.N,/AUX5*%
X131838600Y-80703600D03*
%TD*%
D20*
%TO.P,JP3,4*%
%TO.N,/5V*%
X106439712Y-126423913D03*
%TO.P,JP3,3*%
X106439712Y-128963913D03*
%TO.P,JP3,2*%
X103899712Y-126423913D03*
%TO.P,JP3,1*%
X103899712Y-128963913D03*
%TD*%
%TO.P,JP4,4*%
%TO.N,/GND*%
X106441175Y-85784582D03*
%TO.P,JP4,3*%
X106441175Y-88324582D03*
%TO.P,JP4,2*%
X103901175Y-85784582D03*
%TO.P,JP4,1*%
X103901175Y-88324582D03*
%TD*%
D12*
%TO.P,R2,2*%
%TO.N,/12V*%
X183248950Y-117571222D03*
%TO.P,R2,1*%
%TO.N,Net-(12VPOWER1-PadA)*%
X185148950Y-117571222D03*
%TD*%
D11*
%TO.P,12VPOWER1,C*%
%TO.N,/GND*%
X190786503Y-117555857D03*
%TO.P,12VPOWER1,A*%
%TO.N,Net-(12VPOWER1-PadA)*%
X187942503Y-117555857D03*
%TD*%
D21*
%TO.P,C5,2*%
%TO.N,/GND*%
X180468600Y-125153600D03*
%TO.P,C5,1*%
%TO.N,/12V*%
X182268600Y-125153600D03*
%TD*%
%TO.P,C6,2*%
%TO.N,/GND*%
X110831100Y-128963600D03*
%TO.P,C6,1*%
%TO.N,/5V*%
X109031100Y-128963600D03*
%TD*%
D22*
%TO.N,/IN3*%
X141476790Y-114453672D03*
%TO.N,/IN2*%
X141306003Y-116690697D03*
%TO.N,/ENA*%
X141203575Y-118740925D03*
%TO.N,/IN1*%
X139380443Y-118442250D03*
%TO.N,/INC3B*%
X160752912Y-125722819D03*
%TO.N,/INC3A*%
X159093412Y-123816388D03*
%TO.N,/IN6*%
X178125096Y-112015579D03*
X176438334Y-123431110D03*
%TO.N,/IN5*%
X166031103Y-123595800D03*
X174582459Y-112057435D03*
%TO.N,/ENC*%
X176487690Y-113605879D03*
X173840318Y-124192825D03*
%TO.N,/IN4*%
X146524415Y-113956035D03*
%TO.N,/ENB*%
X146225753Y-115578438D03*
%TO.N,/GND*%
X114532687Y-109896229D03*
X192948087Y-117555719D03*
X186232393Y-89829691D03*
X193715059Y-98238104D03*
X174522728Y-91001622D03*
X170465534Y-108810516D03*
X150474981Y-90390260D03*
X133573806Y-90806588D03*
X116402071Y-91285094D03*
X150419231Y-109002341D03*
X135229553Y-102273266D03*
X135239428Y-100416416D03*
X135318400Y-104470225D03*
X135367756Y-106644850D03*
X135269043Y-98488200D03*
X127652650Y-106891716D03*
X127825400Y-104910807D03*
X127825400Y-102821247D03*
X127825400Y-100677022D03*
X127731618Y-98517841D03*
X188539134Y-102645066D03*
X181011562Y-102719125D03*
X188637856Y-100670144D03*
X180962203Y-100546713D03*
X188613175Y-98670538D03*
X180937521Y-98473044D03*
X188567140Y-105004597D03*
X181045050Y-104886035D03*
X180926590Y-106783054D03*
X188537525Y-106871979D03*
X123771162Y-95134163D03*
X177376109Y-95263797D03*
D23*
X112153600Y-128963600D03*
D22*
X178193600Y-125153600D03*
%TO.N,/5V*%
X158638271Y-85942629D03*
X116435343Y-121165132D03*
X158604746Y-98595744D03*
X140237234Y-107138744D03*
%TD*%
D24*
%TO.N,/IN3*%
X137889465Y-105846350D02*
X141278628Y-105846350D01*
X141278628Y-105846350D02*
X141532468Y-106100191D01*
X141532468Y-106100191D02*
X141532468Y-114397994D01*
X141532468Y-114397994D02*
X141476790Y-114453672D01*
D25*
%TO.N,/IN2*%
X125121062Y-111630904D02*
X126007878Y-112517719D01*
X126007878Y-112517719D02*
X137133025Y-112517719D01*
X137133025Y-112517719D02*
X141306003Y-116690697D01*
D24*
X125121062Y-111630904D02*
X123090012Y-109599854D01*
X123090012Y-109599854D02*
X123090012Y-107109104D01*
X123090012Y-107109104D02*
X123097259Y-107116350D01*
X123097259Y-107116350D02*
X124889465Y-107116350D01*
D25*
%TO.N,/ENA*%
X136268284Y-113533710D02*
X136304821Y-113570247D01*
X124587771Y-112484394D02*
X125673625Y-113570247D01*
X125673625Y-113570247D02*
X136304821Y-113570247D01*
X136304821Y-113570247D02*
X141203575Y-118469000D01*
X141203575Y-118469000D02*
X141203575Y-118740925D01*
D24*
X124587771Y-112484394D02*
X122379246Y-110275869D01*
X122379246Y-110275869D02*
X122379246Y-105864185D01*
X122379246Y-105864185D02*
X122397081Y-105846350D01*
X122397081Y-105846350D02*
X124889465Y-105846350D01*
D25*
%TO.N,/IN1*%
X124410006Y-114191372D02*
X125034846Y-114816213D01*
X125034846Y-114816213D02*
X135638993Y-114816213D01*
D24*
X124410006Y-114191372D02*
X121757328Y-111538694D01*
X121757328Y-111538694D02*
X121757328Y-104589625D01*
X121757328Y-104589625D02*
X121770603Y-104576350D01*
X121770603Y-104576350D02*
X124889465Y-104576350D01*
D25*
X139380443Y-118442250D02*
X139265031Y-118442250D01*
X139265031Y-118442250D02*
X135638993Y-114816213D01*
%TO.N,/INC3B*%
X144342296Y-126460791D02*
X145080268Y-125722819D01*
X145080268Y-125722819D02*
X160752912Y-125722819D01*
X144342296Y-126460791D02*
X144342296Y-128767297D01*
X144342296Y-128767297D02*
X144342296Y-128767298D01*
X144342296Y-128767298D02*
X144538600Y-128963600D01*
%TO.N,/INC3A*%
X141998600Y-128963600D02*
X141998600Y-126652104D01*
X141998600Y-126652104D02*
X144280834Y-124369869D01*
X144280834Y-124369869D02*
X158539931Y-124369869D01*
X158539931Y-124369869D02*
X159093412Y-123816388D01*
X161542221Y-104971054D02*
X161546318Y-104975150D01*
%TO.N,/IN6*%
X168668600Y-128963600D02*
X168668600Y-126165729D01*
D24*
X173703715Y-126165729D02*
X168668600Y-126165729D01*
X178186009Y-107116350D02*
X176659534Y-107116350D01*
X176659534Y-107116350D02*
X176486181Y-107375369D01*
X176486181Y-107375369D02*
X176486181Y-110256716D01*
X176486181Y-110256716D02*
X178125096Y-112015579D01*
X173703715Y-126165729D02*
X176438334Y-123431110D01*
%TO.N,/IN5*%
X178186009Y-104576350D02*
X176093706Y-104576350D01*
X176093706Y-104576350D02*
X175074165Y-105595891D01*
X175074165Y-105595891D02*
X175074165Y-111565729D01*
X175074165Y-111565729D02*
X174582459Y-112057435D01*
D25*
%TO.N,/ENC*%
X166331921Y-126096557D02*
X163670603Y-126096557D01*
X163670603Y-126096557D02*
X163588600Y-126178560D01*
X163588600Y-126178560D02*
X163588600Y-128963600D01*
D24*
X166331921Y-125903797D02*
X166331921Y-126096557D01*
X178186009Y-105846350D02*
X176323078Y-105846350D01*
X176323078Y-105846350D02*
X175796700Y-106372729D01*
X175796700Y-106372729D02*
X175796700Y-112914888D01*
X175796700Y-112914888D02*
X176487690Y-113605879D01*
X173840318Y-124192825D02*
X168042893Y-124192825D01*
X168042893Y-124192825D02*
X166331921Y-125903797D01*
D25*
%TO.N,/IN4*%
X146434562Y-113956035D02*
X146524415Y-113956035D01*
D24*
X137889465Y-103306350D02*
X142903525Y-103306350D01*
X142903525Y-103306350D02*
X143717971Y-104120797D01*
X143717971Y-104120797D02*
X143717971Y-109029716D01*
X143717971Y-109029716D02*
X146703834Y-112015579D01*
X146703834Y-112015579D02*
X146703834Y-113776616D01*
X146703834Y-113776616D02*
X146524415Y-113956035D01*
D25*
%TO.N,/ENB*%
X142787365Y-112176816D02*
X146188987Y-115578438D01*
X146188987Y-115578438D02*
X146225753Y-115578438D01*
D24*
X137889465Y-104576350D02*
X141826815Y-104576350D01*
X141826815Y-104576350D02*
X142864868Y-105614404D01*
X142864868Y-105614404D02*
X142864868Y-112099313D01*
X142864868Y-112099313D02*
X142787365Y-112176816D01*
D25*
%TO.N,/AUX4*%
X131838600Y-128963600D02*
X131838600Y-127236400D01*
X131838600Y-127236400D02*
X131832740Y-125661600D01*
%TO.N,/AUX3*%
X129298600Y-128963600D02*
X129298600Y-127236400D01*
X129298600Y-127236400D02*
X129292740Y-125661600D01*
%TO.N,/AUX2*%
X126758600Y-128963600D02*
X126758600Y-127236400D01*
X126758600Y-127236400D02*
X126752740Y-125661600D01*
%TO.N,/AUX1*%
X124218600Y-128963600D02*
X124218600Y-127236400D01*
X124218600Y-127236400D02*
X124212740Y-125661600D01*
D26*
%TO.N,/GND*%
X116064621Y-106804950D02*
X116064621Y-108364294D01*
X116064621Y-108364294D02*
X114532687Y-109896229D01*
D25*
X184727993Y-93501238D02*
X186975659Y-93476550D01*
X190786503Y-117555857D02*
X192948087Y-117555857D01*
X192948087Y-117555857D02*
X192948087Y-117555719D01*
X186975659Y-93476550D02*
X186975659Y-90572957D01*
X186975659Y-90572957D02*
X186232393Y-89829691D01*
X191186009Y-98226350D02*
X193703306Y-98226350D01*
X193703306Y-98226350D02*
X193715059Y-98238104D01*
X174585809Y-93356150D02*
X171812656Y-93356150D01*
X174585809Y-93356150D02*
X174522728Y-93293069D01*
X174522728Y-93293069D02*
X174522728Y-91001622D01*
X170542656Y-106804950D02*
X170455353Y-108578157D01*
X170455353Y-108578157D02*
X170465534Y-108810516D01*
X150459318Y-93356150D02*
X150459318Y-90405922D01*
X150459318Y-90405922D02*
X150474981Y-90390260D01*
X131420271Y-93476550D02*
X132797371Y-93476550D01*
X132797371Y-93476550D02*
X133666731Y-93476550D01*
X137889465Y-98226350D02*
X137916756Y-98199060D01*
X137916756Y-98199060D02*
X140484984Y-98199060D01*
X140484984Y-98199060D02*
X140484984Y-96285307D01*
X140484984Y-96285307D02*
X139353306Y-95153629D01*
X139353306Y-95153629D02*
X133500206Y-95153629D01*
X133500206Y-95153629D02*
X132719325Y-94372747D01*
X132719325Y-94372747D02*
X132719325Y-93554597D01*
X132719325Y-93554597D02*
X132797371Y-93476550D01*
X131420271Y-93476550D02*
X133573806Y-91323016D01*
X133573806Y-91323016D02*
X133573806Y-90806588D01*
X116121412Y-93356150D02*
X116402071Y-93075491D01*
X116402071Y-93075491D02*
X116402071Y-91285094D01*
X150459318Y-106804950D02*
X150459318Y-108962254D01*
X150459318Y-108962254D02*
X150419231Y-109002341D01*
D27*
X131389465Y-102671350D02*
X131676759Y-102676063D01*
X131676759Y-102676063D02*
X131457568Y-102379872D01*
X131457568Y-102379872D02*
X135202643Y-102335654D01*
D25*
X135202643Y-102335654D02*
X135229553Y-102273266D01*
X131389465Y-102671350D02*
X131389465Y-102367791D01*
X131389465Y-102367791D02*
X132097918Y-101486604D01*
X132097918Y-101486604D02*
X133092515Y-100492007D01*
D27*
X133092515Y-100492007D02*
X135295115Y-100516438D01*
D25*
X135295115Y-100516438D02*
X135239428Y-100416416D01*
X131389465Y-102671350D02*
X131389465Y-103078704D01*
X131389465Y-103078704D02*
X132700087Y-104389325D01*
D27*
X132700087Y-104389325D02*
X135158190Y-104389325D01*
D25*
X135158190Y-104389325D02*
X135318400Y-104470225D01*
X131389465Y-102671350D02*
X131389465Y-105026422D01*
X131389465Y-105026422D02*
X131627434Y-105264391D01*
X131627434Y-105264391D02*
X132535565Y-106686722D01*
D27*
X132535565Y-106686722D02*
X135293878Y-106719594D01*
D25*
X135293878Y-106719594D02*
X135367756Y-106644850D01*
D27*
X132097918Y-101486604D02*
X132320025Y-100706660D01*
X132320025Y-100706660D02*
X132320025Y-99698869D01*
X132320025Y-99698869D02*
X132320025Y-98493507D01*
X132320025Y-98493507D02*
X132482971Y-98848935D01*
X132482971Y-98848935D02*
X134467175Y-98596944D01*
X134467175Y-98596944D02*
X135269043Y-98488200D01*
X131627434Y-105264391D02*
X131627434Y-105412647D01*
X131627434Y-105412647D02*
X130680531Y-106861347D01*
X130680531Y-106861347D02*
X127956803Y-106881885D01*
X127956803Y-106881885D02*
X127652650Y-106891716D01*
X131457568Y-102379872D02*
X131679675Y-104026075D01*
X131679675Y-104026075D02*
X130794903Y-104886116D01*
X130794903Y-104886116D02*
X127825400Y-104910807D01*
X131676759Y-102676063D02*
X131676759Y-102783507D01*
X131676759Y-102783507D02*
X132211462Y-103112532D01*
X132211462Y-103112532D02*
X129106793Y-102840979D01*
X129106793Y-102840979D02*
X127825400Y-102821247D01*
X132320025Y-100706660D02*
X127825400Y-100677022D01*
X132320025Y-99698869D02*
X131827200Y-99698869D01*
X131827200Y-99698869D02*
X131026893Y-98898563D01*
X131026893Y-98898563D02*
X128603418Y-98547657D01*
X128603418Y-98547657D02*
X127731618Y-98517841D01*
X184686009Y-102671350D02*
X188512850Y-102671350D01*
X188512850Y-102671350D02*
X188539134Y-102645066D01*
X184686009Y-102671350D02*
X181059337Y-102671350D01*
X181059337Y-102671350D02*
X181011562Y-102719125D01*
X184686009Y-102671350D02*
X184686009Y-101364157D01*
X184686009Y-101364157D02*
X184849337Y-101200829D01*
X184849337Y-101200829D02*
X185380021Y-100670144D01*
X185380021Y-100670144D02*
X188637856Y-100670144D01*
X184686009Y-102671350D02*
X183701743Y-100546713D01*
X183701743Y-100546713D02*
X180962203Y-100546713D01*
X184849337Y-100237650D02*
X184849337Y-98781654D01*
X184849337Y-98781654D02*
X184960453Y-98670538D01*
X184960453Y-98670538D02*
X188613175Y-98670538D01*
X184849337Y-101200829D02*
X184849337Y-100237650D01*
X184849337Y-100237650D02*
X183084731Y-98473044D01*
X183084731Y-98473044D02*
X180937521Y-98473044D01*
X184686009Y-102671350D02*
X184686009Y-103788747D01*
X184686009Y-103788747D02*
X186923643Y-105079269D01*
X186923643Y-105079269D02*
X185872218Y-104974957D01*
X185872218Y-104974957D02*
X188537500Y-104974957D01*
X188537500Y-104974957D02*
X188567140Y-105004597D01*
X186923643Y-105079269D02*
X184970759Y-104660472D01*
X184970759Y-104660472D02*
X184021071Y-104456810D01*
X184021071Y-104456810D02*
X183651128Y-104826754D01*
X183651128Y-104826754D02*
X181104331Y-104826754D01*
X181104331Y-104826754D02*
X181045050Y-104886035D01*
X184970759Y-104660472D02*
X184970759Y-104989591D01*
X184970759Y-104989591D02*
X184006568Y-105953782D01*
X184006568Y-105953782D02*
X183177296Y-106783054D01*
X183177296Y-106783054D02*
X180926590Y-106783054D01*
X184006568Y-105953782D02*
X184776334Y-105953782D01*
X184776334Y-105953782D02*
X185694531Y-106871979D01*
X185694531Y-106871979D02*
X188537525Y-106871979D01*
D26*
X124889465Y-96252466D02*
X123771162Y-95134163D01*
X178186009Y-96956350D02*
X178186009Y-96073697D01*
X178186009Y-96073697D02*
X177376109Y-95263797D01*
D28*
X103895190Y-80971907D02*
X103901175Y-80977891D01*
D26*
X124889465Y-96252466D02*
X124896996Y-96252466D01*
X124896996Y-96252466D02*
X124896996Y-97711029D01*
D25*
X124889465Y-96252466D02*
X124889465Y-96956350D01*
X124889465Y-98226350D02*
X124896996Y-98226350D01*
X124896996Y-98226350D02*
X124896996Y-97711029D01*
D26*
X178186009Y-96956350D02*
X178166734Y-96956350D01*
X178166734Y-96956350D02*
X178166734Y-97682463D01*
D25*
X178166734Y-97682463D02*
X178186009Y-97682463D01*
X178186009Y-97682463D02*
X178186009Y-98226350D01*
D26*
X103895190Y-80971907D02*
X103895190Y-85699638D01*
X103895190Y-85699638D02*
X103895190Y-85778597D01*
X103895190Y-85778597D02*
X103901175Y-85784582D01*
X103895190Y-85699638D02*
X106500943Y-85699638D01*
X106500943Y-85699638D02*
X106572068Y-85770763D01*
D28*
X106572068Y-85770763D02*
X106572068Y-88193688D01*
X106572068Y-88193688D02*
X106441175Y-88324582D01*
X106441175Y-88324582D02*
X103901175Y-88324582D01*
D25*
X110831100Y-128963600D02*
X112153600Y-128963600D01*
X180468600Y-125153600D02*
X178193600Y-125153600D01*
%TO.N,Net-(R1-Pad1)*%
X106739190Y-80971907D02*
X108892643Y-80971907D01*
X108892643Y-80971907D02*
X108954959Y-80909591D01*
D29*
%TO.N,/5V*%
X123958740Y-123121600D02*
X126498740Y-123121600D01*
X126498740Y-123121600D02*
X129038740Y-123121600D01*
X129038740Y-123121600D02*
X131578740Y-123121600D01*
D25*
X110854959Y-80909591D02*
X110979831Y-80909591D01*
D26*
X109854193Y-124007625D02*
X108425253Y-122578685D01*
X108425253Y-122578685D02*
X100824721Y-114978154D01*
X100824721Y-114978154D02*
X100824721Y-99764388D01*
X100824721Y-99764388D02*
X100824721Y-92336991D01*
X100824721Y-92336991D02*
X102073937Y-91087775D01*
X102073937Y-91087775D02*
X107867715Y-91087775D01*
D25*
X107149556Y-99975150D02*
X106938793Y-99764388D01*
X106938793Y-99764388D02*
X100824721Y-99764388D01*
D26*
X107867715Y-91087775D02*
X109251284Y-89704207D01*
X109251284Y-89704207D02*
X109251284Y-87000450D01*
X109251284Y-87000450D02*
X112405546Y-83846188D01*
X112405546Y-83846188D02*
X112653406Y-83598329D01*
X112653406Y-83598329D02*
X127950771Y-83598329D01*
X127950771Y-83598329D02*
X133489540Y-83598329D01*
X133489540Y-83598329D02*
X137925862Y-83598329D01*
X137925862Y-83598329D02*
X158562881Y-83598329D01*
X158562881Y-83598329D02*
X178016306Y-83598329D01*
X178016306Y-83598329D02*
X179236756Y-83598329D01*
X179236756Y-83598329D02*
X192069137Y-83598329D01*
X192069137Y-83598329D02*
X196120484Y-87649675D01*
X196120484Y-87649675D02*
X196120484Y-89501547D01*
X196120484Y-89501547D02*
X196120484Y-105045529D01*
X196120484Y-105045529D02*
X196120484Y-109271319D01*
D25*
X110979831Y-80909591D02*
X112405546Y-82335307D01*
X112405546Y-82335307D02*
X112405546Y-83846188D01*
X158638271Y-85942629D02*
X158562881Y-83598329D01*
X178059956Y-83641979D02*
X178016306Y-83598329D01*
X132846306Y-84241563D02*
X133489540Y-83598329D01*
X127750112Y-88902532D02*
X127750112Y-86357166D01*
X127750112Y-86357166D02*
X127746171Y-86353225D01*
X127746171Y-86353225D02*
X127746171Y-83802929D01*
X127746171Y-83802929D02*
X127950771Y-83598329D01*
X137618578Y-83905613D02*
X137925862Y-83598329D01*
X179310509Y-83672082D02*
X179236756Y-83598329D01*
X196187709Y-109338544D02*
X196120484Y-109271319D01*
X127750112Y-88902532D02*
X127750112Y-89746666D01*
X116435343Y-121165132D02*
X116558253Y-121288041D01*
X116558253Y-121288041D02*
X116558253Y-122522394D01*
X116558253Y-122522394D02*
X116558253Y-122664400D01*
X191186009Y-107116350D02*
X194049662Y-107116350D01*
X194049662Y-107116350D02*
X196120484Y-105045529D01*
X188875659Y-93476550D02*
X192145481Y-93476550D01*
X192145481Y-93476550D02*
X196120484Y-89501547D01*
X158604746Y-98595744D02*
X159984153Y-99975150D01*
X159984153Y-99975150D02*
X161546318Y-99975150D01*
X155546209Y-99975150D02*
X157225340Y-99975150D01*
X157225340Y-99975150D02*
X158604746Y-98595744D01*
X135566731Y-93476550D02*
X137618578Y-91424704D01*
X137618578Y-91424704D02*
X137618578Y-83905613D01*
D24*
X137889465Y-107116350D02*
X140214840Y-107116350D01*
X140214840Y-107116350D02*
X140237234Y-107138744D01*
D28*
X123958740Y-123121600D02*
X117157459Y-123121600D01*
X117157459Y-123121600D02*
X116558253Y-122522394D01*
X110199225Y-122664400D02*
X116558253Y-122664400D01*
X110199225Y-122664400D02*
X110155156Y-122708469D01*
D26*
X103899712Y-128963913D02*
X106439712Y-128963913D01*
X106439712Y-128963913D02*
X107708287Y-128963913D01*
X107708287Y-128963913D02*
X109854193Y-126818007D01*
X109854193Y-126818007D02*
X109854193Y-124007625D01*
D28*
X110155156Y-122708469D02*
X108555037Y-122708469D01*
X108555037Y-122708469D02*
X108425253Y-122578685D01*
X103899712Y-126423913D02*
X106439712Y-126423913D01*
X106439712Y-126423913D02*
X106439712Y-128963913D01*
D25*
X109031100Y-128963600D02*
X109348287Y-128963913D01*
X109348287Y-128963913D02*
X106439712Y-128963913D01*
D26*
%TO.N,/M2-*%
X146438340Y-97356150D02*
X150459318Y-97356150D01*
X150459318Y-97356150D02*
X152840318Y-94975150D01*
X152840318Y-94975150D02*
X155546209Y-94975150D01*
X146438340Y-97356150D02*
X144033668Y-99760822D01*
X144033668Y-99760822D02*
X140172796Y-99760822D01*
D25*
X140172796Y-99760822D02*
X139167268Y-100766350D01*
X139167268Y-100766350D02*
X137889465Y-100766350D01*
D26*
%TO.N,/M2+*%
X146438340Y-102804950D02*
X150459318Y-102804950D01*
X146438340Y-102804950D02*
X145268325Y-101634935D01*
X145268325Y-101634935D02*
X140250843Y-101634935D01*
X150459318Y-102804950D02*
X150459318Y-101375229D01*
X150459318Y-101375229D02*
X154377321Y-97457225D01*
X154377321Y-97457225D02*
X155528284Y-97457225D01*
X155528284Y-97457225D02*
X155546209Y-97475150D01*
D25*
X137889465Y-102036350D02*
X140250843Y-102036350D01*
X140250843Y-102036350D02*
X140250843Y-101634935D01*
D26*
%TO.N,/M1-*%
X107149556Y-97475150D02*
X107243471Y-97507529D01*
X107243471Y-97507529D02*
X108364296Y-97507529D01*
X116064621Y-102075872D02*
X117538721Y-102075872D01*
D25*
X124889465Y-102036350D02*
X119774481Y-102075872D01*
X119774481Y-102075872D02*
X117538721Y-102075872D01*
D26*
X116064621Y-102075872D02*
X116064621Y-102804950D01*
X112079228Y-102766841D02*
X112079228Y-102804950D01*
X112079228Y-102804950D02*
X112079228Y-101222460D01*
X112079228Y-101222460D02*
X108364296Y-97507529D01*
X116064621Y-102804950D02*
X112079228Y-102804950D01*
%TO.N,/12V*%
X182470596Y-113148097D02*
X182736500Y-113414000D01*
X182736500Y-113414000D02*
X186189503Y-113414000D01*
D25*
X182268600Y-125153600D02*
X182334600Y-125087600D01*
X182334600Y-125087600D02*
X184470643Y-125087600D01*
D26*
%TO.N,/M1+*%
X116121412Y-97356150D02*
X116066756Y-97359097D01*
X116066756Y-97359097D02*
X112167065Y-97356150D01*
X112167065Y-97356150D02*
X109721581Y-94913613D01*
X109721581Y-94913613D02*
X107149556Y-94975150D01*
X116121412Y-97356150D02*
X117583884Y-98766913D01*
X117583884Y-98766913D02*
X117583884Y-99924057D01*
X117583884Y-99924057D02*
X117583884Y-100108788D01*
D25*
X124889465Y-100766350D02*
X118430715Y-100770888D01*
X118430715Y-100770888D02*
X117583884Y-99924057D01*
D26*
%TO.N,/M3-*%
X161546318Y-97475150D02*
X164126887Y-97475150D01*
X164126887Y-97475150D02*
X167966362Y-101314625D01*
X167966362Y-101314625D02*
X167966362Y-102661079D01*
X167966362Y-102661079D02*
X166840234Y-102804950D01*
X166840234Y-102804950D02*
X170542656Y-102804950D01*
X170542656Y-102804950D02*
X174886353Y-101371150D01*
X174886353Y-101371150D02*
X175787653Y-101783397D01*
D25*
X178186009Y-102036350D02*
X176040606Y-102036350D01*
X176040606Y-102036350D02*
X175787653Y-101783397D01*
D26*
%TO.N,/M3+*%
X168110234Y-97356150D02*
X171812656Y-97356150D01*
X161546318Y-94975150D02*
X164727496Y-94975150D01*
X164727496Y-94975150D02*
X167129281Y-97376935D01*
X167129281Y-97376935D02*
X168089450Y-97376935D01*
X168089450Y-97376935D02*
X168110234Y-97356150D01*
X171812656Y-97356150D02*
X172773321Y-97356150D01*
X172773321Y-97356150D02*
X175888006Y-99814554D01*
D25*
X178186009Y-100766350D02*
X176839803Y-100766350D01*
X176839803Y-100766350D02*
X175888006Y-99814554D01*
%TO.N,Net-(12VPOWER1-PadA)*%
X185148950Y-117571222D02*
X187942503Y-117571222D01*
X187942503Y-117571222D02*
X187942503Y-117555857D01*
%TD*%
M02*
