%TF.GenerationSoftware,KiCad,Pcbnew,5.1.10-88a1d61d58~90~ubuntu20.04.1*%
%TF.CreationDate,2021-08-01T14:30:54-04:00*%
%TF.ProjectId,MegaShield,4d656761-5368-4696-956c-642e6b696361,rev?*%
%TF.SameCoordinates,Original*%
%TF.FileFunction,Legend,Top*%
%TF.FilePolarity,Positive*%
%FSLAX46Y46*%
G04 Gerber Fmt 4.6, Leading zero omitted, Abs format (unit mm)*
G04 Created by KiCad (PCBNEW 5.1.10-88a1d61d58~90~ubuntu20.04.1) date 2021-08-01 14:30:54*
%MOMM*%
%LPD*%
G01*
G04 APERTURE LIST*
%ADD10C,0.266700*%
%ADD11C,0.142240*%
%ADD12C,0.508000*%
%ADD13C,0.101600*%
%ADD14C,0.152400*%
%ADD15C,0.304800*%
%ADD16C,0.127000*%
%ADD17C,0.100000*%
%ADD18C,0.203200*%
%ADD19C,0.254000*%
%ADD20C,0.558800*%
%ADD21C,0.096520*%
G04 APERTURE END LIST*
D10*
X124290566Y-118308511D02*
X124290566Y-117504178D01*
X124773166Y-118469378D02*
X123084066Y-117906345D01*
X124773166Y-117343311D01*
X123084066Y-116780278D02*
X124451433Y-116780278D01*
X124612300Y-116699845D01*
X124692733Y-116619411D01*
X124773166Y-116458545D01*
X124773166Y-116136811D01*
X124692733Y-115975945D01*
X124612300Y-115895511D01*
X124451433Y-115815078D01*
X123084066Y-115815078D01*
X123084066Y-115171611D02*
X124773166Y-114045545D01*
X123084066Y-114045545D02*
X124773166Y-115171611D01*
X124773166Y-112517311D02*
X124773166Y-113482511D01*
X124773166Y-112999911D02*
X123084066Y-112999911D01*
X123325366Y-113160778D01*
X123486233Y-113321645D01*
X123566666Y-113482511D01*
X126830566Y-118308511D02*
X126830566Y-117504178D01*
X127313166Y-118469378D02*
X125624066Y-117906345D01*
X127313166Y-117343311D01*
X125624066Y-116780278D02*
X126991433Y-116780278D01*
X127152300Y-116699845D01*
X127232733Y-116619411D01*
X127313166Y-116458545D01*
X127313166Y-116136811D01*
X127232733Y-115975945D01*
X127152300Y-115895511D01*
X126991433Y-115815078D01*
X125624066Y-115815078D01*
X125624066Y-115171611D02*
X127313166Y-114045545D01*
X125624066Y-114045545D02*
X127313166Y-115171611D01*
X125784933Y-113482511D02*
X125704500Y-113402078D01*
X125624066Y-113241211D01*
X125624066Y-112839045D01*
X125704500Y-112678178D01*
X125784933Y-112597745D01*
X125945800Y-112517311D01*
X126106666Y-112517311D01*
X126347966Y-112597745D01*
X127313166Y-113562945D01*
X127313166Y-112517311D01*
X129370566Y-118308511D02*
X129370566Y-117504178D01*
X129853166Y-118469378D02*
X128164066Y-117906345D01*
X129853166Y-117343311D01*
X128164066Y-116780278D02*
X129531433Y-116780278D01*
X129692300Y-116699845D01*
X129772733Y-116619411D01*
X129853166Y-116458545D01*
X129853166Y-116136811D01*
X129772733Y-115975945D01*
X129692300Y-115895511D01*
X129531433Y-115815078D01*
X128164066Y-115815078D01*
X128164066Y-115171611D02*
X129853166Y-114045545D01*
X128164066Y-114045545D02*
X129853166Y-115171611D01*
X128164066Y-113562945D02*
X128164066Y-112517311D01*
X128807533Y-113080345D01*
X128807533Y-112839045D01*
X128887966Y-112678178D01*
X128968400Y-112597745D01*
X129129266Y-112517311D01*
X129531433Y-112517311D01*
X129692300Y-112597745D01*
X129772733Y-112678178D01*
X129853166Y-112839045D01*
X129853166Y-113321645D01*
X129772733Y-113482511D01*
X129692300Y-113562945D01*
X131656566Y-118308511D02*
X131656566Y-117504178D01*
X132139166Y-118469378D02*
X130450066Y-117906345D01*
X132139166Y-117343311D01*
X130450066Y-116780278D02*
X131817433Y-116780278D01*
X131978300Y-116699845D01*
X132058733Y-116619411D01*
X132139166Y-116458545D01*
X132139166Y-116136811D01*
X132058733Y-115975945D01*
X131978300Y-115895511D01*
X131817433Y-115815078D01*
X130450066Y-115815078D01*
X130450066Y-115171611D02*
X132139166Y-114045545D01*
X130450066Y-114045545D02*
X132139166Y-115171611D01*
X131013100Y-112678178D02*
X132139166Y-112678178D01*
X130369633Y-113080345D02*
X131576133Y-113482511D01*
X131576133Y-112436878D01*
X117297311Y-89195666D02*
X118101645Y-89195666D01*
X117136445Y-89678266D02*
X117699478Y-87989166D01*
X118262511Y-89678266D01*
X118825545Y-87989166D02*
X118825545Y-89356533D01*
X118905978Y-89517400D01*
X118986411Y-89597833D01*
X119147278Y-89678266D01*
X119469011Y-89678266D01*
X119629878Y-89597833D01*
X119710311Y-89517400D01*
X119790745Y-89356533D01*
X119790745Y-87989166D01*
X120434211Y-87989166D02*
X121560278Y-89678266D01*
X121560278Y-87989166D02*
X120434211Y-89678266D01*
X122927645Y-87989166D02*
X122605911Y-87989166D01*
X122445045Y-88069600D01*
X122364611Y-88150033D01*
X122203745Y-88391333D01*
X122123311Y-88713066D01*
X122123311Y-89356533D01*
X122203745Y-89517400D01*
X122284178Y-89597833D01*
X122445045Y-89678266D01*
X122766778Y-89678266D01*
X122927645Y-89597833D01*
X123008078Y-89517400D01*
X123088511Y-89356533D01*
X123088511Y-88954366D01*
X123008078Y-88793500D01*
X122927645Y-88713066D01*
X122766778Y-88632633D01*
X122445045Y-88632633D01*
X122284178Y-88713066D01*
X122203745Y-88793500D01*
X122123311Y-88954366D01*
X117297311Y-86655666D02*
X118101645Y-86655666D01*
X117136445Y-87138266D02*
X117699478Y-85449166D01*
X118262511Y-87138266D01*
X118825545Y-85449166D02*
X118825545Y-86816533D01*
X118905978Y-86977400D01*
X118986411Y-87057833D01*
X119147278Y-87138266D01*
X119469011Y-87138266D01*
X119629878Y-87057833D01*
X119710311Y-86977400D01*
X119790745Y-86816533D01*
X119790745Y-85449166D01*
X120434211Y-85449166D02*
X121560278Y-87138266D01*
X121560278Y-85449166D02*
X120434211Y-87138266D01*
X123008078Y-85449166D02*
X122203745Y-85449166D01*
X122123311Y-86253500D01*
X122203745Y-86173066D01*
X122364611Y-86092633D01*
X122766778Y-86092633D01*
X122927645Y-86173066D01*
X123008078Y-86253500D01*
X123088511Y-86414366D01*
X123088511Y-86816533D01*
X123008078Y-86977400D01*
X122927645Y-87057833D01*
X122766778Y-87138266D01*
X122364611Y-87138266D01*
X122203745Y-87057833D01*
X122123311Y-86977400D01*
D11*
X105547318Y-122912198D02*
X106110352Y-124601298D01*
X106673385Y-122912198D01*
X108121185Y-124601298D02*
X107155985Y-124601298D01*
X107638585Y-124601298D02*
X107638585Y-122912198D01*
X107477718Y-123153498D01*
X107316852Y-123314365D01*
X107155985Y-123394798D01*
X108845085Y-124440432D02*
X108925518Y-124520865D01*
X108845085Y-124601298D01*
X108764652Y-124520865D01*
X108845085Y-124440432D01*
X108845085Y-124601298D01*
X109568985Y-123073065D02*
X109649418Y-122992632D01*
X109810285Y-122912198D01*
X110212452Y-122912198D01*
X110373318Y-122992632D01*
X110453752Y-123073065D01*
X110534185Y-123233932D01*
X110534185Y-123394798D01*
X110453752Y-123636098D01*
X109488552Y-124601298D01*
X110534185Y-124601298D01*
X111258085Y-124601298D02*
X111258085Y-122912198D01*
X111258085Y-123555665D02*
X111418952Y-123475232D01*
X111740685Y-123475232D01*
X111901552Y-123555665D01*
X111981985Y-123636098D01*
X112062418Y-123796965D01*
X112062418Y-124279565D01*
X111981985Y-124440432D01*
X111901552Y-124520865D01*
X111740685Y-124601298D01*
X111418952Y-124601298D01*
X111258085Y-124520865D01*
X182485264Y-114648098D02*
X181520064Y-114648098D01*
X182002664Y-114648098D02*
X182002664Y-112958998D01*
X181841797Y-113200298D01*
X181680931Y-113361165D01*
X181520064Y-113441598D01*
X183128731Y-113119865D02*
X183209164Y-113039432D01*
X183370031Y-112958998D01*
X183772197Y-112958998D01*
X183933064Y-113039432D01*
X184013497Y-113119865D01*
X184093931Y-113280732D01*
X184093931Y-113441598D01*
X184013497Y-113682898D01*
X183048297Y-114648098D01*
X184093931Y-114648098D01*
X184576531Y-112958998D02*
X185139564Y-114648098D01*
X185702597Y-112958998D01*
X187552564Y-114648098D02*
X187552564Y-112958998D01*
X188196031Y-112958998D01*
X188356897Y-113039432D01*
X188437331Y-113119865D01*
X188517764Y-113280732D01*
X188517764Y-113522032D01*
X188437331Y-113682898D01*
X188356897Y-113763332D01*
X188196031Y-113843765D01*
X187552564Y-113843765D01*
X189482964Y-114648098D02*
X189322097Y-114567665D01*
X189241664Y-114487232D01*
X189161231Y-114326365D01*
X189161231Y-113843765D01*
X189241664Y-113682898D01*
X189322097Y-113602465D01*
X189482964Y-113522032D01*
X189724264Y-113522032D01*
X189885131Y-113602465D01*
X189965564Y-113682898D01*
X190045997Y-113843765D01*
X190045997Y-114326365D01*
X189965564Y-114487232D01*
X189885131Y-114567665D01*
X189724264Y-114648098D01*
X189482964Y-114648098D01*
X190609031Y-113522032D02*
X190930764Y-114648098D01*
X191252497Y-113843765D01*
X191574231Y-114648098D01*
X191895964Y-113522032D01*
X193182897Y-114567665D02*
X193022031Y-114648098D01*
X192700297Y-114648098D01*
X192539431Y-114567665D01*
X192458997Y-114406798D01*
X192458997Y-113763332D01*
X192539431Y-113602465D01*
X192700297Y-113522032D01*
X193022031Y-113522032D01*
X193182897Y-113602465D01*
X193263331Y-113763332D01*
X193263331Y-113924198D01*
X192458997Y-114085065D01*
X193987231Y-114648098D02*
X193987231Y-113522032D01*
X193987231Y-113843765D02*
X194067664Y-113682898D01*
X194148097Y-113602465D01*
X194308964Y-113522032D01*
X194469831Y-113522032D01*
D12*
X104270988Y-92885111D02*
X104270988Y-90472111D01*
X105075322Y-92195682D01*
X105879655Y-90472111D01*
X105879655Y-92885111D01*
X107028703Y-92885111D02*
X107028703Y-90472111D01*
X107947941Y-90472111D01*
X108177750Y-90587016D01*
X108292655Y-90701920D01*
X108407560Y-90931730D01*
X108407560Y-91276444D01*
X108292655Y-91506254D01*
X108177750Y-91621158D01*
X107947941Y-91736063D01*
X107028703Y-91736063D01*
X110705655Y-92885111D02*
X109326798Y-92885111D01*
X110016226Y-92885111D02*
X110016226Y-90472111D01*
X109786417Y-90816825D01*
X109556607Y-91046635D01*
X109326798Y-91161539D01*
X156247388Y-91273598D02*
X153834388Y-91273598D01*
X155557959Y-90469264D01*
X153834388Y-89664931D01*
X156247388Y-89664931D01*
X156247388Y-88515883D02*
X153834388Y-88515883D01*
X153834388Y-87596645D01*
X153949293Y-87366836D01*
X154064197Y-87251931D01*
X154294007Y-87137026D01*
X154638721Y-87137026D01*
X154868531Y-87251931D01*
X154983435Y-87366836D01*
X155098340Y-87596645D01*
X155098340Y-88515883D01*
X154064197Y-86217788D02*
X153949293Y-86102883D01*
X153834388Y-85873074D01*
X153834388Y-85298550D01*
X153949293Y-85068741D01*
X154064197Y-84953836D01*
X154294007Y-84838931D01*
X154523816Y-84838931D01*
X154868531Y-84953836D01*
X156247388Y-86332693D01*
X156247388Y-84838931D01*
X163062585Y-91290433D02*
X160649585Y-91290433D01*
X162373156Y-90486099D01*
X160649585Y-89681766D01*
X163062585Y-89681766D01*
X163062585Y-88532718D02*
X160649585Y-88532718D01*
X160649585Y-87613480D01*
X160764490Y-87383671D01*
X160879394Y-87268766D01*
X161109204Y-87153861D01*
X161453918Y-87153861D01*
X161683728Y-87268766D01*
X161798632Y-87383671D01*
X161913537Y-87613480D01*
X161913537Y-88532718D01*
X160649585Y-86349528D02*
X160649585Y-84855766D01*
X161568823Y-85660099D01*
X161568823Y-85315385D01*
X161683728Y-85085576D01*
X161798632Y-84970671D01*
X162028442Y-84855766D01*
X162602966Y-84855766D01*
X162832775Y-84970671D01*
X162947680Y-85085576D01*
X163062585Y-85315385D01*
X163062585Y-86004814D01*
X162947680Y-86234623D01*
X162832775Y-86349528D01*
D11*
X104134989Y-95609166D02*
X103169789Y-95609166D01*
X103652389Y-95609166D02*
X103652389Y-93920066D01*
X103491522Y-94161366D01*
X103330656Y-94322233D01*
X103169789Y-94402666D01*
X160522989Y-93323166D02*
X159557789Y-93323166D01*
X160040389Y-93323166D02*
X160040389Y-91634066D01*
X159879522Y-91875366D01*
X159718656Y-92036233D01*
X159557789Y-92116666D01*
X154426989Y-93323166D02*
X153461789Y-93323166D01*
X153944389Y-93323166D02*
X153944389Y-91634066D01*
X153783522Y-91875366D01*
X153622656Y-92036233D01*
X153461789Y-92116666D01*
D13*
X124599600Y-92881811D02*
X124553638Y-92973735D01*
X124553638Y-93111620D01*
X124599600Y-93249506D01*
X124691523Y-93341430D01*
X124783447Y-93387392D01*
X124967295Y-93433354D01*
X125105180Y-93433354D01*
X125289028Y-93387392D01*
X125380952Y-93341430D01*
X125472876Y-93249506D01*
X125518838Y-93111620D01*
X125518838Y-93019697D01*
X125472876Y-92881811D01*
X125426914Y-92835849D01*
X125105180Y-92835849D01*
X125105180Y-93019697D01*
X125518838Y-92422192D02*
X124553638Y-92422192D01*
X125518838Y-91870649D01*
X124553638Y-91870649D01*
X125518838Y-91411030D02*
X124553638Y-91411030D01*
X124553638Y-91181220D01*
X124599600Y-91043335D01*
X124691523Y-90951411D01*
X124783447Y-90905449D01*
X124967295Y-90859487D01*
X125105180Y-90859487D01*
X125289028Y-90905449D01*
X125380952Y-90951411D01*
X125472876Y-91043335D01*
X125518838Y-91181220D01*
X125518838Y-91411030D01*
X127347638Y-93065659D02*
X128312838Y-92743925D01*
X127347638Y-92422192D01*
X128266876Y-91686801D02*
X128312838Y-91778725D01*
X128312838Y-91962573D01*
X128266876Y-92054497D01*
X128220914Y-92100459D01*
X128128990Y-92146420D01*
X127853219Y-92146420D01*
X127761295Y-92100459D01*
X127715333Y-92054497D01*
X127669371Y-91962573D01*
X127669371Y-91778725D01*
X127715333Y-91686801D01*
X128266876Y-90859487D02*
X128312838Y-90951411D01*
X128312838Y-91135259D01*
X128266876Y-91227182D01*
X128220914Y-91273144D01*
X128128990Y-91319106D01*
X127853219Y-91319106D01*
X127761295Y-91273144D01*
X127715333Y-91227182D01*
X127669371Y-91135259D01*
X127669371Y-90951411D01*
X127715333Y-90859487D01*
X120041388Y-120073600D02*
X119949464Y-120027638D01*
X119811579Y-120027638D01*
X119673693Y-120073600D01*
X119581769Y-120165523D01*
X119535807Y-120257447D01*
X119489845Y-120441295D01*
X119489845Y-120579180D01*
X119535807Y-120763028D01*
X119581769Y-120854952D01*
X119673693Y-120946876D01*
X119811579Y-120992838D01*
X119903502Y-120992838D01*
X120041388Y-120946876D01*
X120087350Y-120900914D01*
X120087350Y-120579180D01*
X119903502Y-120579180D01*
X120501007Y-120992838D02*
X120501007Y-120027638D01*
X121052550Y-120992838D01*
X121052550Y-120027638D01*
X121512169Y-120992838D02*
X121512169Y-120027638D01*
X121741979Y-120027638D01*
X121879864Y-120073600D01*
X121971788Y-120165523D01*
X122017750Y-120257447D01*
X122063712Y-120441295D01*
X122063712Y-120579180D01*
X122017750Y-120763028D01*
X121971788Y-120854952D01*
X121879864Y-120946876D01*
X121741979Y-120992838D01*
X121512169Y-120992838D01*
X119857540Y-122567638D02*
X120179274Y-123532838D01*
X120501007Y-122567638D01*
X121236398Y-123486876D02*
X121144474Y-123532838D01*
X120960626Y-123532838D01*
X120868702Y-123486876D01*
X120822740Y-123440914D01*
X120776779Y-123348990D01*
X120776779Y-123073219D01*
X120822740Y-122981295D01*
X120868702Y-122935333D01*
X120960626Y-122889371D01*
X121144474Y-122889371D01*
X121236398Y-122935333D01*
X122063712Y-123486876D02*
X121971788Y-123532838D01*
X121787940Y-123532838D01*
X121696017Y-123486876D01*
X121650055Y-123440914D01*
X121604093Y-123348990D01*
X121604093Y-123073219D01*
X121650055Y-122981295D01*
X121696017Y-122935333D01*
X121787940Y-122889371D01*
X121971788Y-122889371D01*
X122063712Y-122935333D01*
X119581769Y-125153600D02*
X119489845Y-125107638D01*
X119351960Y-125107638D01*
X119214074Y-125153600D01*
X119122150Y-125245523D01*
X119076188Y-125337447D01*
X119030226Y-125521295D01*
X119030226Y-125659180D01*
X119076188Y-125843028D01*
X119122150Y-125934952D01*
X119214074Y-126026876D01*
X119351960Y-126072838D01*
X119443883Y-126072838D01*
X119581769Y-126026876D01*
X119627731Y-125980914D01*
X119627731Y-125659180D01*
X119443883Y-125659180D01*
X120041388Y-126072838D02*
X120041388Y-125107638D01*
X120409083Y-125107638D01*
X120501007Y-125153600D01*
X120546969Y-125199561D01*
X120592931Y-125291485D01*
X120592931Y-125429371D01*
X120546969Y-125521295D01*
X120501007Y-125567257D01*
X120409083Y-125613219D01*
X120041388Y-125613219D01*
X121006588Y-126072838D02*
X121006588Y-125107638D01*
X121650055Y-125107638D02*
X121833902Y-125107638D01*
X121925826Y-125153600D01*
X122017750Y-125245523D01*
X122063712Y-125429371D01*
X122063712Y-125751104D01*
X122017750Y-125934952D01*
X121925826Y-126026876D01*
X121833902Y-126072838D01*
X121650055Y-126072838D01*
X121558131Y-126026876D01*
X121466207Y-125934952D01*
X121420245Y-125751104D01*
X121420245Y-125429371D01*
X121466207Y-125245523D01*
X121558131Y-125153600D01*
X121650055Y-125107638D01*
X131965600Y-88515430D02*
X131919638Y-88607354D01*
X131919638Y-88745240D01*
X131965600Y-88883125D01*
X132057523Y-88975049D01*
X132149447Y-89021011D01*
X132333295Y-89066973D01*
X132471180Y-89066973D01*
X132655028Y-89021011D01*
X132746952Y-88975049D01*
X132838876Y-88883125D01*
X132884838Y-88745240D01*
X132884838Y-88653316D01*
X132838876Y-88515430D01*
X132792914Y-88469468D01*
X132471180Y-88469468D01*
X132471180Y-88653316D01*
X132884838Y-88055811D02*
X131919638Y-88055811D01*
X131919638Y-87688116D01*
X131965600Y-87596192D01*
X132011561Y-87550230D01*
X132103485Y-87504268D01*
X132241371Y-87504268D01*
X132333295Y-87550230D01*
X132379257Y-87596192D01*
X132425219Y-87688116D01*
X132425219Y-88055811D01*
X132884838Y-87090611D02*
X131919638Y-87090611D01*
X131919638Y-86447144D02*
X131919638Y-86263297D01*
X131965600Y-86171373D01*
X132057523Y-86079449D01*
X132241371Y-86033487D01*
X132563104Y-86033487D01*
X132746952Y-86079449D01*
X132838876Y-86171373D01*
X132884838Y-86263297D01*
X132884838Y-86447144D01*
X132838876Y-86539068D01*
X132746952Y-86630992D01*
X132563104Y-86676954D01*
X132241371Y-86676954D01*
X132057523Y-86630992D01*
X131965600Y-86539068D01*
X131919638Y-86447144D01*
D14*
X190258600Y-115311100D02*
X189623600Y-115311100D01*
X189623600Y-114993600D02*
X189623600Y-115311100D01*
X189623600Y-115311100D02*
X189623600Y-115628600D01*
X189623600Y-115311100D02*
X188353600Y-115311100D01*
D15*
X190252250Y-115946100D02*
G75*
G03*
X190252250Y-115946100I-152400J0D01*
G01*
D14*
X104216100Y-82608600D02*
X104851100Y-82608600D01*
X104851100Y-82291100D02*
X104851100Y-82608600D01*
X104851100Y-82608600D02*
X104851100Y-82926100D01*
X104851100Y-82608600D02*
X105486100Y-82291100D01*
X105486100Y-82291100D02*
X105486100Y-82926100D01*
X104851100Y-82608600D02*
X105486100Y-82926100D01*
X104851100Y-82608600D02*
X106121100Y-82608600D01*
D15*
X104527250Y-83243600D02*
G75*
G03*
X104527250Y-83243600I-152400J0D01*
G01*
D14*
%TO.C,PWML1*%
X155333600Y-130233600D02*
X154063600Y-130233600D01*
X153428600Y-129598600D02*
X154063600Y-130233600D01*
X154063600Y-127693600D02*
X153428600Y-128328600D01*
X155968600Y-129598600D02*
X155333600Y-130233600D01*
X155968600Y-128328600D02*
X155968600Y-129598600D01*
X155333600Y-127693600D02*
X155968600Y-128328600D01*
X154063600Y-127693600D02*
X155333600Y-127693600D01*
X137553600Y-130233600D02*
X136283600Y-130233600D01*
X135648600Y-129598600D02*
X136283600Y-130233600D01*
X136283600Y-127693600D02*
X135648600Y-128328600D01*
X135648600Y-128328600D02*
X135648600Y-129598600D01*
X138823600Y-130233600D02*
X138188600Y-129598600D01*
X140093600Y-130233600D02*
X138823600Y-130233600D01*
X140728600Y-129598600D02*
X140093600Y-130233600D01*
X140728600Y-128328600D02*
X140728600Y-129598600D01*
X140093600Y-127693600D02*
X140728600Y-128328600D01*
X138823600Y-127693600D02*
X140093600Y-127693600D01*
X138188600Y-128328600D02*
X138823600Y-127693600D01*
X138188600Y-129598600D02*
X137553600Y-130233600D01*
X138188600Y-128328600D02*
X138188600Y-129598600D01*
X137553600Y-127693600D02*
X138188600Y-128328600D01*
X136283600Y-127693600D02*
X137553600Y-127693600D01*
X145173600Y-130233600D02*
X143903600Y-130233600D01*
X143268600Y-129598600D02*
X143903600Y-130233600D01*
X143903600Y-127693600D02*
X143268600Y-128328600D01*
X141363600Y-130233600D02*
X140728600Y-129598600D01*
X142633600Y-130233600D02*
X141363600Y-130233600D01*
X143268600Y-129598600D02*
X142633600Y-130233600D01*
X143268600Y-128328600D02*
X143268600Y-129598600D01*
X142633600Y-127693600D02*
X143268600Y-128328600D01*
X141363600Y-127693600D02*
X142633600Y-127693600D01*
X140728600Y-128328600D02*
X141363600Y-127693600D01*
X146443600Y-130233600D02*
X145808600Y-129598600D01*
X147713600Y-130233600D02*
X146443600Y-130233600D01*
X148348600Y-129598600D02*
X147713600Y-130233600D01*
X148348600Y-128328600D02*
X148348600Y-129598600D01*
X147713600Y-127693600D02*
X148348600Y-128328600D01*
X146443600Y-127693600D02*
X147713600Y-127693600D01*
X145808600Y-128328600D02*
X146443600Y-127693600D01*
X145808600Y-129598600D02*
X145173600Y-130233600D01*
X145808600Y-128328600D02*
X145808600Y-129598600D01*
X145173600Y-127693600D02*
X145808600Y-128328600D01*
X143903600Y-127693600D02*
X145173600Y-127693600D01*
X152793600Y-130233600D02*
X151523600Y-130233600D01*
X150888600Y-129598600D02*
X151523600Y-130233600D01*
X151523600Y-127693600D02*
X150888600Y-128328600D01*
X148983600Y-130233600D02*
X148348600Y-129598600D01*
X150253600Y-130233600D02*
X148983600Y-130233600D01*
X150888600Y-129598600D02*
X150253600Y-130233600D01*
X150888600Y-128328600D02*
X150888600Y-129598600D01*
X150253600Y-127693600D02*
X150888600Y-128328600D01*
X148983600Y-127693600D02*
X150253600Y-127693600D01*
X148348600Y-128328600D02*
X148983600Y-127693600D01*
X153428600Y-129598600D02*
X152793600Y-130233600D01*
X153428600Y-128328600D02*
X153428600Y-129598600D01*
X152793600Y-127693600D02*
X153428600Y-128328600D01*
X151523600Y-127693600D02*
X152793600Y-127693600D01*
%TO.C,PWMH1*%
X176923600Y-130233600D02*
X175653600Y-130233600D01*
X175018600Y-129598600D02*
X175653600Y-130233600D01*
X175653600Y-127693600D02*
X175018600Y-128328600D01*
X177558600Y-129598600D02*
X176923600Y-130233600D01*
X177558600Y-128328600D02*
X177558600Y-129598600D01*
X176923600Y-127693600D02*
X177558600Y-128328600D01*
X175653600Y-127693600D02*
X176923600Y-127693600D01*
X159143600Y-130233600D02*
X157873600Y-130233600D01*
X157238600Y-129598600D02*
X157873600Y-130233600D01*
X157873600Y-127693600D02*
X157238600Y-128328600D01*
X157238600Y-128328600D02*
X157238600Y-129598600D01*
X160413600Y-130233600D02*
X159778600Y-129598600D01*
X161683600Y-130233600D02*
X160413600Y-130233600D01*
X162318600Y-129598600D02*
X161683600Y-130233600D01*
X162318600Y-128328600D02*
X162318600Y-129598600D01*
X161683600Y-127693600D02*
X162318600Y-128328600D01*
X160413600Y-127693600D02*
X161683600Y-127693600D01*
X159778600Y-128328600D02*
X160413600Y-127693600D01*
X159778600Y-129598600D02*
X159143600Y-130233600D01*
X159778600Y-128328600D02*
X159778600Y-129598600D01*
X159143600Y-127693600D02*
X159778600Y-128328600D01*
X157873600Y-127693600D02*
X159143600Y-127693600D01*
X166763600Y-130233600D02*
X165493600Y-130233600D01*
X164858600Y-129598600D02*
X165493600Y-130233600D01*
X165493600Y-127693600D02*
X164858600Y-128328600D01*
X162953600Y-130233600D02*
X162318600Y-129598600D01*
X164223600Y-130233600D02*
X162953600Y-130233600D01*
X164858600Y-129598600D02*
X164223600Y-130233600D01*
X164858600Y-128328600D02*
X164858600Y-129598600D01*
X164223600Y-127693600D02*
X164858600Y-128328600D01*
X162953600Y-127693600D02*
X164223600Y-127693600D01*
X162318600Y-128328600D02*
X162953600Y-127693600D01*
X168033600Y-130233600D02*
X167398600Y-129598600D01*
X169303600Y-130233600D02*
X168033600Y-130233600D01*
X169938600Y-129598600D02*
X169303600Y-130233600D01*
X169938600Y-128328600D02*
X169938600Y-129598600D01*
X169303600Y-127693600D02*
X169938600Y-128328600D01*
X168033600Y-127693600D02*
X169303600Y-127693600D01*
X167398600Y-128328600D02*
X168033600Y-127693600D01*
X167398600Y-129598600D02*
X166763600Y-130233600D01*
X167398600Y-128328600D02*
X167398600Y-129598600D01*
X166763600Y-127693600D02*
X167398600Y-128328600D01*
X165493600Y-127693600D02*
X166763600Y-127693600D01*
X174383600Y-130233600D02*
X173113600Y-130233600D01*
X172478600Y-129598600D02*
X173113600Y-130233600D01*
X173113600Y-127693600D02*
X172478600Y-128328600D01*
X170573600Y-130233600D02*
X169938600Y-129598600D01*
X171843600Y-130233600D02*
X170573600Y-130233600D01*
X172478600Y-129598600D02*
X171843600Y-130233600D01*
X172478600Y-128328600D02*
X172478600Y-129598600D01*
X171843600Y-127693600D02*
X172478600Y-128328600D01*
X170573600Y-127693600D02*
X171843600Y-127693600D01*
X169938600Y-128328600D02*
X170573600Y-127693600D01*
X175018600Y-129598600D02*
X174383600Y-130233600D01*
X175018600Y-128328600D02*
X175018600Y-129598600D01*
X174383600Y-127693600D02*
X175018600Y-128328600D01*
X173113600Y-127693600D02*
X174383600Y-127693600D01*
%TO.C,COMMUNICATION2*%
X132473600Y-130233600D02*
X131203600Y-130233600D01*
X130568600Y-129598600D02*
X131203600Y-130233600D01*
X131203600Y-127693600D02*
X130568600Y-128328600D01*
X133108600Y-129598600D02*
X132473600Y-130233600D01*
X133108600Y-128328600D02*
X133108600Y-129598600D01*
X132473600Y-127693600D02*
X133108600Y-128328600D01*
X131203600Y-127693600D02*
X132473600Y-127693600D01*
X114693600Y-130233600D02*
X113423600Y-130233600D01*
X112788600Y-129598600D02*
X113423600Y-130233600D01*
X113423600Y-127693600D02*
X112788600Y-128328600D01*
X112788600Y-128328600D02*
X112788600Y-129598600D01*
X115963600Y-130233600D02*
X115328600Y-129598600D01*
X117233600Y-130233600D02*
X115963600Y-130233600D01*
X117868600Y-129598600D02*
X117233600Y-130233600D01*
X117868600Y-128328600D02*
X117868600Y-129598600D01*
X117233600Y-127693600D02*
X117868600Y-128328600D01*
X115963600Y-127693600D02*
X117233600Y-127693600D01*
X115328600Y-128328600D02*
X115963600Y-127693600D01*
X115328600Y-129598600D02*
X114693600Y-130233600D01*
X115328600Y-128328600D02*
X115328600Y-129598600D01*
X114693600Y-127693600D02*
X115328600Y-128328600D01*
X113423600Y-127693600D02*
X114693600Y-127693600D01*
X122313600Y-130233600D02*
X121043600Y-130233600D01*
X120408600Y-129598600D02*
X121043600Y-130233600D01*
X121043600Y-127693600D02*
X120408600Y-128328600D01*
X118503600Y-130233600D02*
X117868600Y-129598600D01*
X119773600Y-130233600D02*
X118503600Y-130233600D01*
X120408600Y-129598600D02*
X119773600Y-130233600D01*
X120408600Y-128328600D02*
X120408600Y-129598600D01*
X119773600Y-127693600D02*
X120408600Y-128328600D01*
X118503600Y-127693600D02*
X119773600Y-127693600D01*
X117868600Y-128328600D02*
X118503600Y-127693600D01*
X123583600Y-130233600D02*
X122948600Y-129598600D01*
X124853600Y-130233600D02*
X123583600Y-130233600D01*
X125488600Y-129598600D02*
X124853600Y-130233600D01*
X125488600Y-128328600D02*
X125488600Y-129598600D01*
X124853600Y-127693600D02*
X125488600Y-128328600D01*
X123583600Y-127693600D02*
X124853600Y-127693600D01*
X122948600Y-128328600D02*
X123583600Y-127693600D01*
X122948600Y-129598600D02*
X122313600Y-130233600D01*
X122948600Y-128328600D02*
X122948600Y-129598600D01*
X122313600Y-127693600D02*
X122948600Y-128328600D01*
X121043600Y-127693600D02*
X122313600Y-127693600D01*
X129933600Y-130233600D02*
X128663600Y-130233600D01*
X128028600Y-129598600D02*
X128663600Y-130233600D01*
X128663600Y-127693600D02*
X128028600Y-128328600D01*
X126123600Y-130233600D02*
X125488600Y-129598600D01*
X127393600Y-130233600D02*
X126123600Y-130233600D01*
X128028600Y-129598600D02*
X127393600Y-130233600D01*
X128028600Y-128328600D02*
X128028600Y-129598600D01*
X127393600Y-127693600D02*
X128028600Y-128328600D01*
X126123600Y-127693600D02*
X127393600Y-127693600D01*
X125488600Y-128328600D02*
X126123600Y-127693600D01*
X130568600Y-129598600D02*
X129933600Y-130233600D01*
X130568600Y-128328600D02*
X130568600Y-129598600D01*
X129933600Y-127693600D02*
X130568600Y-128328600D01*
X128663600Y-127693600D02*
X129933600Y-127693600D01*
D16*
%TO.C,USB1*%
X104451515Y-79879189D02*
X104451515Y-82034769D01*
D17*
G36*
X104867190Y-80271907D02*
G01*
X104717190Y-80271907D01*
X104717190Y-80521907D01*
X104867190Y-80521907D01*
X104867190Y-80271907D01*
G37*
G36*
X105417190Y-80871907D02*
G01*
X105217190Y-80871907D01*
X105217190Y-81071907D01*
X105417190Y-81071907D01*
X105417190Y-80871907D01*
G37*
D13*
X104767190Y-81471907D02*
G75*
G03*
X105867190Y-81471907I550000J500000D01*
G01*
X104767190Y-80471907D02*
G75*
G02*
X105867190Y-80471907I550000J-500000D01*
G01*
D18*
%TO.C,IC1*%
X136989465Y-110471350D02*
X136989465Y-108971350D01*
X125789465Y-110471350D02*
X125789465Y-108971350D01*
X136989465Y-94871350D02*
X136989465Y-96371350D01*
X129989465Y-109871350D02*
X129989465Y-110531350D01*
X132689465Y-109871350D02*
X129989465Y-109871350D01*
X132689465Y-110531350D02*
X132689465Y-109871350D01*
X129989465Y-110531350D02*
X125789465Y-110531350D01*
X136989465Y-110531350D02*
X132689465Y-110531350D01*
X132789465Y-94811350D02*
X136989465Y-94811350D01*
X132789465Y-95471350D02*
X132789465Y-94811350D01*
X130089465Y-95471350D02*
X132789465Y-95471350D01*
X130089465Y-94811350D02*
X130089465Y-95471350D01*
X127089465Y-94811350D02*
X130089465Y-94811350D01*
X125789465Y-96111350D02*
X127089465Y-94811350D01*
D17*
%TO.C,U$3*%
G36*
X110417065Y-93856150D02*
G01*
X110417065Y-94606150D01*
X110917065Y-94606150D01*
X110917065Y-93856150D01*
X110417065Y-93856150D01*
G37*
G36*
X113417065Y-93856150D02*
G01*
X113417065Y-94606150D01*
X113917065Y-94606150D01*
X113917065Y-93856150D01*
X113417065Y-93856150D01*
G37*
D19*
X113992065Y-97606150D02*
X113417065Y-97606150D01*
X110342065Y-93106150D02*
X110917065Y-93106150D01*
X113992065Y-93106150D02*
X113417065Y-93106150D01*
X110342065Y-97606150D02*
X110342065Y-93106150D01*
X113992065Y-93106150D02*
X113992065Y-97606150D01*
X110917065Y-97606150D02*
G75*
G03*
X110342065Y-97606150I-287500J-17297803D01*
G01*
D17*
%TO.C,U$4*%
G36*
X117871412Y-96856150D02*
G01*
X117871412Y-96106150D01*
X117371412Y-96106150D01*
X117371412Y-96856150D01*
X117871412Y-96856150D01*
G37*
G36*
X114871412Y-96856150D02*
G01*
X114871412Y-96106150D01*
X114371412Y-96106150D01*
X114371412Y-96856150D01*
X114871412Y-96856150D01*
G37*
D19*
X114296412Y-93106150D02*
X114871412Y-93106150D01*
X117946412Y-97606150D02*
X117371412Y-97606150D01*
X114296412Y-97606150D02*
X114871412Y-97606150D01*
X117946412Y-93106150D02*
X117946412Y-97606150D01*
X114296412Y-97606150D02*
X114296412Y-93106150D01*
X117371412Y-93106150D02*
G75*
G03*
X117946412Y-93106150I287500J17297803D01*
G01*
D17*
%TO.C,U$5*%
G36*
X113829228Y-106304950D02*
G01*
X113829228Y-105554950D01*
X113329228Y-105554950D01*
X113329228Y-106304950D01*
X113829228Y-106304950D01*
G37*
G36*
X110829228Y-106304950D02*
G01*
X110829228Y-105554950D01*
X110329228Y-105554950D01*
X110329228Y-106304950D01*
X110829228Y-106304950D01*
G37*
D19*
X110254228Y-102554950D02*
X110829228Y-102554950D01*
X113904228Y-107054950D02*
X113329228Y-107054950D01*
X110254228Y-107054950D02*
X110829228Y-107054950D01*
X113904228Y-102554950D02*
X113904228Y-107054950D01*
X110254228Y-107054950D02*
X110254228Y-102554950D01*
X113329228Y-102554950D02*
G75*
G03*
X113904228Y-102554950I287500J17297803D01*
G01*
D17*
%TO.C,U$6*%
G36*
X114314621Y-103304950D02*
G01*
X114314621Y-104054950D01*
X114814621Y-104054950D01*
X114814621Y-103304950D01*
X114314621Y-103304950D01*
G37*
G36*
X117314621Y-103304950D02*
G01*
X117314621Y-104054950D01*
X117814621Y-104054950D01*
X117814621Y-103304950D01*
X117314621Y-103304950D01*
G37*
D19*
X117889621Y-107054950D02*
X117314621Y-107054950D01*
X114239621Y-102554950D02*
X114814621Y-102554950D01*
X117889621Y-102554950D02*
X117314621Y-102554950D01*
X114239621Y-107054950D02*
X114239621Y-102554950D01*
X117889621Y-102554950D02*
X117889621Y-107054950D01*
X114814621Y-107054950D02*
G75*
G03*
X114239621Y-107054950I-287500J-17297803D01*
G01*
D17*
%TO.C,U$7*%
G36*
X148188340Y-106304950D02*
G01*
X148188340Y-105554950D01*
X147688340Y-105554950D01*
X147688340Y-106304950D01*
X148188340Y-106304950D01*
G37*
G36*
X145188340Y-106304950D02*
G01*
X145188340Y-105554950D01*
X144688340Y-105554950D01*
X144688340Y-106304950D01*
X145188340Y-106304950D01*
G37*
D19*
X144613340Y-102554950D02*
X145188340Y-102554950D01*
X148263340Y-107054950D02*
X147688340Y-107054950D01*
X144613340Y-107054950D02*
X145188340Y-107054950D01*
X148263340Y-102554950D02*
X148263340Y-107054950D01*
X144613340Y-107054950D02*
X144613340Y-102554950D01*
X147688340Y-102554950D02*
G75*
G03*
X148263340Y-102554950I287500J17297803D01*
G01*
D17*
%TO.C,U$8*%
G36*
X148709318Y-103304950D02*
G01*
X148709318Y-104054950D01*
X149209318Y-104054950D01*
X149209318Y-103304950D01*
X148709318Y-103304950D01*
G37*
G36*
X151709318Y-103304950D02*
G01*
X151709318Y-104054950D01*
X152209318Y-104054950D01*
X152209318Y-103304950D01*
X151709318Y-103304950D01*
G37*
D19*
X152284318Y-107054950D02*
X151709318Y-107054950D01*
X148634318Y-102554950D02*
X149209318Y-102554950D01*
X152284318Y-102554950D02*
X151709318Y-102554950D01*
X148634318Y-107054950D02*
X148634318Y-102554950D01*
X152284318Y-102554950D02*
X152284318Y-107054950D01*
X149209318Y-107054950D02*
G75*
G03*
X148634318Y-107054950I-287500J-17297803D01*
G01*
D17*
%TO.C,U$9*%
G36*
X144688340Y-93856150D02*
G01*
X144688340Y-94606150D01*
X145188340Y-94606150D01*
X145188340Y-93856150D01*
X144688340Y-93856150D01*
G37*
G36*
X147688340Y-93856150D02*
G01*
X147688340Y-94606150D01*
X148188340Y-94606150D01*
X148188340Y-93856150D01*
X147688340Y-93856150D01*
G37*
D19*
X148263340Y-97606150D02*
X147688340Y-97606150D01*
X144613340Y-93106150D02*
X145188340Y-93106150D01*
X148263340Y-93106150D02*
X147688340Y-93106150D01*
X144613340Y-97606150D02*
X144613340Y-93106150D01*
X148263340Y-93106150D02*
X148263340Y-97606150D01*
X145188340Y-97606150D02*
G75*
G03*
X144613340Y-97606150I-287500J-17297803D01*
G01*
D17*
%TO.C,U$10*%
G36*
X152209318Y-96856150D02*
G01*
X152209318Y-96106150D01*
X151709318Y-96106150D01*
X151709318Y-96856150D01*
X152209318Y-96856150D01*
G37*
G36*
X149209318Y-96856150D02*
G01*
X149209318Y-96106150D01*
X148709318Y-96106150D01*
X148709318Y-96856150D01*
X149209318Y-96856150D01*
G37*
D19*
X148634318Y-93106150D02*
X149209318Y-93106150D01*
X152284318Y-97606150D02*
X151709318Y-97606150D01*
X148634318Y-97606150D02*
X149209318Y-97606150D01*
X152284318Y-93106150D02*
X152284318Y-97606150D01*
X148634318Y-97606150D02*
X148634318Y-93106150D01*
X151709318Y-93106150D02*
G75*
G03*
X152284318Y-93106150I287500J17297803D01*
G01*
D18*
%TO.C,J1*%
X185147390Y-120792725D02*
X183547390Y-120792725D01*
X197847390Y-120792725D02*
X189897390Y-120792725D01*
X183547390Y-120792725D02*
X183547390Y-122392725D01*
X183547390Y-127792725D02*
X183547390Y-129392725D01*
X183547390Y-129392725D02*
X197847390Y-129392725D01*
X197847390Y-129392725D02*
X197847390Y-120792725D01*
D16*
%TO.C,U$1*%
X105371556Y-105135150D02*
X104274556Y-105135150D01*
X105371556Y-103865150D02*
X105371556Y-105135150D01*
X104274556Y-103865150D02*
X105371556Y-103865150D01*
X105371556Y-97515150D02*
X104274556Y-97515150D01*
X105371556Y-96245150D02*
X105371556Y-97515150D01*
X104274556Y-96245150D02*
X105371556Y-96245150D01*
X104274556Y-105135150D02*
X104274556Y-109580150D01*
X104274556Y-103865150D02*
X104274556Y-105135150D01*
X104274556Y-97515150D02*
X104274556Y-103865150D01*
X104274556Y-96245150D02*
X104274556Y-97515150D01*
X104274556Y-93705150D02*
X104274556Y-96245150D01*
X110024556Y-93705150D02*
X110024556Y-109580150D01*
%TO.C,U$12*%
X153768209Y-105135150D02*
X152671209Y-105135150D01*
X153768209Y-103865150D02*
X153768209Y-105135150D01*
X152671209Y-103865150D02*
X153768209Y-103865150D01*
X153768209Y-97515150D02*
X152671209Y-97515150D01*
X153768209Y-96245150D02*
X153768209Y-97515150D01*
X152671209Y-96245150D02*
X153768209Y-96245150D01*
X152671209Y-105135150D02*
X152671209Y-109580150D01*
X152671209Y-103865150D02*
X152671209Y-105135150D01*
X152671209Y-97515150D02*
X152671209Y-103865150D01*
X152671209Y-96245150D02*
X152671209Y-97515150D01*
X152671209Y-93705150D02*
X152671209Y-96245150D01*
X158421209Y-93705150D02*
X158421209Y-109580150D01*
D18*
%TO.C,J2*%
X132340740Y-126931600D02*
X131070740Y-126931600D01*
X130435740Y-121216600D02*
X130435740Y-119946600D01*
X131070740Y-119311600D02*
X130435740Y-119946600D01*
X132975740Y-119946600D02*
X132340740Y-119311600D01*
X132340740Y-119311600D02*
X131070740Y-119311600D01*
X130435740Y-122486600D02*
X131070740Y-121851600D01*
X130435740Y-123756600D02*
X130435740Y-122486600D01*
X131070740Y-124391600D02*
X130435740Y-123756600D01*
X132975740Y-123756600D02*
X132340740Y-124391600D01*
X132975740Y-122486600D02*
X132975740Y-123756600D01*
X132340740Y-121851600D02*
X132975740Y-122486600D01*
X131070740Y-121851600D02*
X130435740Y-121216600D01*
X132975740Y-121216600D02*
X132340740Y-121851600D01*
X132975740Y-119946600D02*
X132975740Y-121216600D01*
X130435740Y-125026600D02*
X131070740Y-124391600D01*
X130435740Y-126296600D02*
X130435740Y-125026600D01*
X131070740Y-126931600D02*
X130435740Y-126296600D01*
X132975740Y-126296600D02*
X132340740Y-126931600D01*
X132975740Y-125026600D02*
X132975740Y-126296600D01*
X132340740Y-124391600D02*
X132975740Y-125026600D01*
%TO.C,J3*%
X127260740Y-126931600D02*
X125990740Y-126931600D01*
X125355740Y-121216600D02*
X125355740Y-119946600D01*
X125990740Y-119311600D02*
X125355740Y-119946600D01*
X127895740Y-119946600D02*
X127260740Y-119311600D01*
X127260740Y-119311600D02*
X125990740Y-119311600D01*
X125355740Y-122486600D02*
X125990740Y-121851600D01*
X125355740Y-123756600D02*
X125355740Y-122486600D01*
X125990740Y-124391600D02*
X125355740Y-123756600D01*
X127895740Y-123756600D02*
X127260740Y-124391600D01*
X127895740Y-122486600D02*
X127895740Y-123756600D01*
X127260740Y-121851600D02*
X127895740Y-122486600D01*
X125990740Y-121851600D02*
X125355740Y-121216600D01*
X127895740Y-121216600D02*
X127260740Y-121851600D01*
X127895740Y-119946600D02*
X127895740Y-121216600D01*
X125355740Y-125026600D02*
X125990740Y-124391600D01*
X125355740Y-126296600D02*
X125355740Y-125026600D01*
X125990740Y-126931600D02*
X125355740Y-126296600D01*
X127895740Y-126296600D02*
X127260740Y-126931600D01*
X127895740Y-125026600D02*
X127895740Y-126296600D01*
X127260740Y-124391600D02*
X127895740Y-125026600D01*
%TO.C,J4*%
X124720740Y-126931600D02*
X123450740Y-126931600D01*
X122815740Y-121216600D02*
X122815740Y-119946600D01*
X123450740Y-119311600D02*
X122815740Y-119946600D01*
X125355740Y-119946600D02*
X124720740Y-119311600D01*
X124720740Y-119311600D02*
X123450740Y-119311600D01*
X122815740Y-122486600D02*
X123450740Y-121851600D01*
X122815740Y-123756600D02*
X122815740Y-122486600D01*
X123450740Y-124391600D02*
X122815740Y-123756600D01*
X125355740Y-123756600D02*
X124720740Y-124391600D01*
X125355740Y-122486600D02*
X125355740Y-123756600D01*
X124720740Y-121851600D02*
X125355740Y-122486600D01*
X123450740Y-121851600D02*
X122815740Y-121216600D01*
X125355740Y-121216600D02*
X124720740Y-121851600D01*
X125355740Y-119946600D02*
X125355740Y-121216600D01*
X122815740Y-125026600D02*
X123450740Y-124391600D01*
X122815740Y-126296600D02*
X122815740Y-125026600D01*
X123450740Y-126931600D02*
X122815740Y-126296600D01*
X125355740Y-126296600D02*
X124720740Y-126931600D01*
X125355740Y-125026600D02*
X125355740Y-126296600D01*
X124720740Y-124391600D02*
X125355740Y-125026600D01*
%TO.C,J5*%
X129800740Y-126931600D02*
X128530740Y-126931600D01*
X127895740Y-121216600D02*
X127895740Y-119946600D01*
X128530740Y-119311600D02*
X127895740Y-119946600D01*
X130435740Y-119946600D02*
X129800740Y-119311600D01*
X129800740Y-119311600D02*
X128530740Y-119311600D01*
X127895740Y-122486600D02*
X128530740Y-121851600D01*
X127895740Y-123756600D02*
X127895740Y-122486600D01*
X128530740Y-124391600D02*
X127895740Y-123756600D01*
X130435740Y-123756600D02*
X129800740Y-124391600D01*
X130435740Y-122486600D02*
X130435740Y-123756600D01*
X129800740Y-121851600D02*
X130435740Y-122486600D01*
X128530740Y-121851600D02*
X127895740Y-121216600D01*
X130435740Y-121216600D02*
X129800740Y-121851600D01*
X130435740Y-119946600D02*
X130435740Y-121216600D01*
X127895740Y-125026600D02*
X128530740Y-124391600D01*
X127895740Y-126296600D02*
X127895740Y-125026600D01*
X128530740Y-126931600D02*
X127895740Y-126296600D01*
X130435740Y-126296600D02*
X129800740Y-126931600D01*
X130435740Y-125026600D02*
X130435740Y-126296600D01*
X129800740Y-124391600D02*
X130435740Y-125026600D01*
%TO.C,IC2*%
X190286009Y-110471350D02*
X190286009Y-108971350D01*
X179086009Y-110471350D02*
X179086009Y-108971350D01*
X190286009Y-94871350D02*
X190286009Y-96371350D01*
X183286009Y-109871350D02*
X183286009Y-110531350D01*
X185986009Y-109871350D02*
X183286009Y-109871350D01*
X185986009Y-110531350D02*
X185986009Y-109871350D01*
X183286009Y-110531350D02*
X179086009Y-110531350D01*
X190286009Y-110531350D02*
X185986009Y-110531350D01*
X186086009Y-94811350D02*
X190286009Y-94811350D01*
X186086009Y-95471350D02*
X186086009Y-94811350D01*
X183386009Y-95471350D02*
X186086009Y-95471350D01*
X183386009Y-94811350D02*
X183386009Y-95471350D01*
X180386009Y-94811350D02*
X183386009Y-94811350D01*
X179086009Y-96111350D02*
X180386009Y-94811350D01*
D17*
%TO.C,U$2*%
G36*
X166360234Y-93856150D02*
G01*
X166360234Y-94606150D01*
X166860234Y-94606150D01*
X166860234Y-93856150D01*
X166360234Y-93856150D01*
G37*
G36*
X169360234Y-93856150D02*
G01*
X169360234Y-94606150D01*
X169860234Y-94606150D01*
X169860234Y-93856150D01*
X169360234Y-93856150D01*
G37*
D19*
X169935234Y-97606150D02*
X169360234Y-97606150D01*
X166285234Y-93106150D02*
X166860234Y-93106150D01*
X169935234Y-93106150D02*
X169360234Y-93106150D01*
X166285234Y-97606150D02*
X166285234Y-93106150D01*
X169935234Y-93106150D02*
X169935234Y-97606150D01*
X166860234Y-97606150D02*
G75*
G03*
X166285234Y-97606150I-287500J-17297803D01*
G01*
D17*
%TO.C,U$11*%
G36*
X173562656Y-96856150D02*
G01*
X173562656Y-96106150D01*
X173062656Y-96106150D01*
X173062656Y-96856150D01*
X173562656Y-96856150D01*
G37*
G36*
X170562656Y-96856150D02*
G01*
X170562656Y-96106150D01*
X170062656Y-96106150D01*
X170062656Y-96856150D01*
X170562656Y-96856150D01*
G37*
D19*
X169987656Y-93106150D02*
X170562656Y-93106150D01*
X173637656Y-97606150D02*
X173062656Y-97606150D01*
X169987656Y-97606150D02*
X170562656Y-97606150D01*
X173637656Y-93106150D02*
X173637656Y-97606150D01*
X169987656Y-97606150D02*
X169987656Y-93106150D01*
X173062656Y-93106150D02*
G75*
G03*
X173637656Y-93106150I287500J17297803D01*
G01*
D17*
%TO.C,U$13*%
G36*
X168590234Y-106304950D02*
G01*
X168590234Y-105554950D01*
X168090234Y-105554950D01*
X168090234Y-106304950D01*
X168590234Y-106304950D01*
G37*
G36*
X165590234Y-106304950D02*
G01*
X165590234Y-105554950D01*
X165090234Y-105554950D01*
X165090234Y-106304950D01*
X165590234Y-106304950D01*
G37*
D19*
X165015234Y-102554950D02*
X165590234Y-102554950D01*
X168665234Y-107054950D02*
X168090234Y-107054950D01*
X165015234Y-107054950D02*
X165590234Y-107054950D01*
X168665234Y-102554950D02*
X168665234Y-107054950D01*
X165015234Y-107054950D02*
X165015234Y-102554950D01*
X168090234Y-102554950D02*
G75*
G03*
X168665234Y-102554950I287500J17297803D01*
G01*
D17*
%TO.C,U$14*%
G36*
X168792656Y-103304950D02*
G01*
X168792656Y-104054950D01*
X169292656Y-104054950D01*
X169292656Y-103304950D01*
X168792656Y-103304950D01*
G37*
G36*
X171792656Y-103304950D02*
G01*
X171792656Y-104054950D01*
X172292656Y-104054950D01*
X172292656Y-103304950D01*
X171792656Y-103304950D01*
G37*
D19*
X172367656Y-107054950D02*
X171792656Y-107054950D01*
X168717656Y-102554950D02*
X169292656Y-102554950D01*
X172367656Y-102554950D02*
X171792656Y-102554950D01*
X168717656Y-107054950D02*
X168717656Y-102554950D01*
X172367656Y-102554950D02*
X172367656Y-107054950D01*
X169292656Y-107054950D02*
G75*
G03*
X168717656Y-107054950I-287500J-17297803D01*
G01*
D16*
%TO.C,U$20*%
X159768318Y-105135150D02*
X158671318Y-105135150D01*
X159768318Y-103865150D02*
X159768318Y-105135150D01*
X158671318Y-103865150D02*
X159768318Y-103865150D01*
X159768318Y-97515150D02*
X158671318Y-97515150D01*
X159768318Y-96245150D02*
X159768318Y-97515150D01*
X158671318Y-96245150D02*
X159768318Y-96245150D01*
X158671318Y-105135150D02*
X158671318Y-109580150D01*
X158671318Y-103865150D02*
X158671318Y-105135150D01*
X158671318Y-97515150D02*
X158671318Y-103865150D01*
X158671318Y-96245150D02*
X158671318Y-97515150D01*
X158671318Y-93705150D02*
X158671318Y-96245150D01*
X164421318Y-93705150D02*
X164421318Y-109580150D01*
D18*
%TO.C,J6*%
X131556171Y-85591225D02*
X131556171Y-86861225D01*
X125841171Y-87496225D02*
X124571171Y-87496225D01*
X123936171Y-86861225D02*
X124571171Y-87496225D01*
X124571171Y-84956225D02*
X123936171Y-85591225D01*
X123936171Y-85591225D02*
X123936171Y-86861225D01*
X127111171Y-87496225D02*
X126476171Y-86861225D01*
X128381171Y-87496225D02*
X127111171Y-87496225D01*
X129016171Y-86861225D02*
X128381171Y-87496225D01*
X128381171Y-84956225D02*
X129016171Y-85591225D01*
X127111171Y-84956225D02*
X128381171Y-84956225D01*
X126476171Y-85591225D02*
X127111171Y-84956225D01*
X126476171Y-86861225D02*
X125841171Y-87496225D01*
X125841171Y-84956225D02*
X126476171Y-85591225D01*
X124571171Y-84956225D02*
X125841171Y-84956225D01*
X129651171Y-87496225D02*
X129016171Y-86861225D01*
X130921171Y-87496225D02*
X129651171Y-87496225D01*
X131556171Y-86861225D02*
X130921171Y-87496225D01*
X130921171Y-84956225D02*
X131556171Y-85591225D01*
X129651171Y-84956225D02*
X130921171Y-84956225D01*
X129016171Y-85591225D02*
X129651171Y-84956225D01*
%TO.C,J7*%
X131560112Y-88140532D02*
X131560112Y-89410532D01*
X125845112Y-90045532D02*
X124575112Y-90045532D01*
X123940112Y-89410532D02*
X124575112Y-90045532D01*
X124575112Y-87505532D02*
X123940112Y-88140532D01*
X123940112Y-88140532D02*
X123940112Y-89410532D01*
X127115112Y-90045532D02*
X126480112Y-89410532D01*
X128385112Y-90045532D02*
X127115112Y-90045532D01*
X129020112Y-89410532D02*
X128385112Y-90045532D01*
X128385112Y-87505532D02*
X129020112Y-88140532D01*
X127115112Y-87505532D02*
X128385112Y-87505532D01*
X126480112Y-88140532D02*
X127115112Y-87505532D01*
X126480112Y-89410532D02*
X125845112Y-90045532D01*
X125845112Y-87505532D02*
X126480112Y-88140532D01*
X124575112Y-87505532D02*
X125845112Y-87505532D01*
X129655112Y-90045532D02*
X129020112Y-89410532D01*
X130925112Y-90045532D02*
X129655112Y-90045532D01*
X131560112Y-89410532D02*
X130925112Y-90045532D01*
X130925112Y-87505532D02*
X131560112Y-88140532D01*
X129655112Y-87505532D02*
X130925112Y-87505532D01*
X129020112Y-88140532D02*
X129655112Y-87505532D01*
D14*
%TO.C,COMMUNICATION1*%
X150253600Y-81973600D02*
X148983600Y-81973600D01*
X148348600Y-81338600D02*
X148983600Y-81973600D01*
X148983600Y-79433600D02*
X148348600Y-80068600D01*
X150888600Y-81338600D02*
X150253600Y-81973600D01*
X150888600Y-80068600D02*
X150888600Y-81338600D01*
X150253600Y-79433600D02*
X150888600Y-80068600D01*
X148983600Y-79433600D02*
X150253600Y-79433600D01*
X132473600Y-81973600D02*
X131203600Y-81973600D01*
X130568600Y-81338600D02*
X131203600Y-81973600D01*
X131203600Y-79433600D02*
X130568600Y-80068600D01*
X130568600Y-80068600D02*
X130568600Y-81338600D01*
X133743600Y-81973600D02*
X133108600Y-81338600D01*
X135013600Y-81973600D02*
X133743600Y-81973600D01*
X135648600Y-81338600D02*
X135013600Y-81973600D01*
X135648600Y-80068600D02*
X135648600Y-81338600D01*
X135013600Y-79433600D02*
X135648600Y-80068600D01*
X133743600Y-79433600D02*
X135013600Y-79433600D01*
X133108600Y-80068600D02*
X133743600Y-79433600D01*
X133108600Y-81338600D02*
X132473600Y-81973600D01*
X133108600Y-80068600D02*
X133108600Y-81338600D01*
X132473600Y-79433600D02*
X133108600Y-80068600D01*
X131203600Y-79433600D02*
X132473600Y-79433600D01*
X140093600Y-81973600D02*
X138823600Y-81973600D01*
X138188600Y-81338600D02*
X138823600Y-81973600D01*
X138823600Y-79433600D02*
X138188600Y-80068600D01*
X136283600Y-81973600D02*
X135648600Y-81338600D01*
X137553600Y-81973600D02*
X136283600Y-81973600D01*
X138188600Y-81338600D02*
X137553600Y-81973600D01*
X138188600Y-80068600D02*
X138188600Y-81338600D01*
X137553600Y-79433600D02*
X138188600Y-80068600D01*
X136283600Y-79433600D02*
X137553600Y-79433600D01*
X135648600Y-80068600D02*
X136283600Y-79433600D01*
X141363600Y-81973600D02*
X140728600Y-81338600D01*
X142633600Y-81973600D02*
X141363600Y-81973600D01*
X143268600Y-81338600D02*
X142633600Y-81973600D01*
X143268600Y-80068600D02*
X143268600Y-81338600D01*
X142633600Y-79433600D02*
X143268600Y-80068600D01*
X141363600Y-79433600D02*
X142633600Y-79433600D01*
X140728600Y-80068600D02*
X141363600Y-79433600D01*
X140728600Y-81338600D02*
X140093600Y-81973600D01*
X140728600Y-80068600D02*
X140728600Y-81338600D01*
X140093600Y-79433600D02*
X140728600Y-80068600D01*
X138823600Y-79433600D02*
X140093600Y-79433600D01*
X147713600Y-81973600D02*
X146443600Y-81973600D01*
X145808600Y-81338600D02*
X146443600Y-81973600D01*
X146443600Y-79433600D02*
X145808600Y-80068600D01*
X143903600Y-81973600D02*
X143268600Y-81338600D01*
X145173600Y-81973600D02*
X143903600Y-81973600D01*
X145808600Y-81338600D02*
X145173600Y-81973600D01*
X145808600Y-80068600D02*
X145808600Y-81338600D01*
X145173600Y-79433600D02*
X145808600Y-80068600D01*
X143903600Y-79433600D02*
X145173600Y-79433600D01*
X143268600Y-80068600D02*
X143903600Y-79433600D01*
X148348600Y-81338600D02*
X147713600Y-81973600D01*
X148348600Y-80068600D02*
X148348600Y-81338600D01*
X147713600Y-79433600D02*
X148348600Y-80068600D01*
X146443600Y-79433600D02*
X147713600Y-79433600D01*
%TO.C,JP3*%
X103264712Y-130233913D02*
X104534712Y-130233913D01*
X105804712Y-130233913D02*
X107074712Y-130233913D01*
X107709712Y-125788913D02*
X107709712Y-129598913D01*
X105169712Y-125788913D02*
X105169712Y-129598913D01*
X107074712Y-125153913D02*
X107709712Y-125788913D01*
X105804712Y-125153913D02*
X107074712Y-125153913D01*
X105169712Y-125788913D02*
X105804712Y-125153913D01*
X104534712Y-125153913D02*
X105169712Y-125788913D01*
X103264712Y-125153913D02*
X104534712Y-125153913D01*
X102629712Y-125788913D02*
X103264712Y-125153913D01*
X102629712Y-129598913D02*
X102629712Y-125788913D01*
X107074712Y-130233913D02*
X107709712Y-129598913D01*
X105169712Y-129598913D02*
X105804712Y-130233913D01*
X104534712Y-130233913D02*
X105169712Y-129598913D01*
X102629712Y-129598913D02*
X103264712Y-130233913D01*
%TO.C,JP4*%
X103266175Y-89594582D02*
X104536175Y-89594582D01*
X105806175Y-89594582D02*
X107076175Y-89594582D01*
X107711175Y-85149582D02*
X107711175Y-88959582D01*
X105171175Y-85149582D02*
X105171175Y-88959582D01*
X107076175Y-84514582D02*
X107711175Y-85149582D01*
X105806175Y-84514582D02*
X107076175Y-84514582D01*
X105171175Y-85149582D02*
X105806175Y-84514582D01*
X104536175Y-84514582D02*
X105171175Y-85149582D01*
X103266175Y-84514582D02*
X104536175Y-84514582D01*
X102631175Y-85149582D02*
X103266175Y-84514582D01*
X102631175Y-88959582D02*
X102631175Y-85149582D01*
X107076175Y-89594582D02*
X107711175Y-88959582D01*
X105171175Y-88959582D02*
X105806175Y-89594582D01*
X104536175Y-89594582D02*
X105171175Y-88959582D01*
X102631175Y-88959582D02*
X103266175Y-89594582D01*
D16*
%TO.C,12VPOWER1*%
X190230178Y-118648575D02*
X190230178Y-116492995D01*
D17*
G36*
X189814503Y-118255857D02*
G01*
X189964503Y-118255857D01*
X189964503Y-118005857D01*
X189814503Y-118005857D01*
X189814503Y-118255857D01*
G37*
G36*
X189264503Y-117655857D02*
G01*
X189464503Y-117655857D01*
X189464503Y-117455857D01*
X189264503Y-117455857D01*
X189264503Y-117655857D01*
G37*
D13*
X189914503Y-117055857D02*
G75*
G03*
X188814503Y-117055857I-550000J-500000D01*
G01*
X189914503Y-118055857D02*
G75*
G02*
X188814503Y-118055857I-550000J500000D01*
G01*
D20*
%TO.C,C5*%
X181368600Y-125184100D02*
X181368600Y-125123100D01*
D14*
X181668600Y-124553600D02*
X181068600Y-124553600D01*
X181668600Y-125753600D02*
X181068600Y-125753600D01*
D20*
%TO.C,C6*%
X109931100Y-128933100D02*
X109931100Y-128994100D01*
D14*
X109631100Y-129563600D02*
X110231100Y-129563600D01*
X109631100Y-128363600D02*
X110231100Y-128363600D01*
%TO.C,USB1*%
D21*
X101458543Y-82975113D02*
X102435234Y-82975113D01*
X102550138Y-82917660D01*
X102607591Y-82860208D01*
X102665043Y-82745303D01*
X102665043Y-82515494D01*
X102607591Y-82400589D01*
X102550138Y-82343136D01*
X102435234Y-82285684D01*
X101458543Y-82285684D01*
X102607591Y-81768613D02*
X102665043Y-81596255D01*
X102665043Y-81308994D01*
X102607591Y-81194089D01*
X102550138Y-81136636D01*
X102435234Y-81079184D01*
X102320329Y-81079184D01*
X102205424Y-81136636D01*
X102147972Y-81194089D01*
X102090519Y-81308994D01*
X102033067Y-81538803D01*
X101975615Y-81653708D01*
X101918162Y-81711160D01*
X101803257Y-81768613D01*
X101688353Y-81768613D01*
X101573448Y-81711160D01*
X101515996Y-81653708D01*
X101458543Y-81538803D01*
X101458543Y-81251541D01*
X101515996Y-81079184D01*
X102033067Y-80159946D02*
X102090519Y-79987589D01*
X102147972Y-79930136D01*
X102262876Y-79872684D01*
X102435234Y-79872684D01*
X102550138Y-79930136D01*
X102607591Y-79987589D01*
X102665043Y-80102494D01*
X102665043Y-80562113D01*
X101458543Y-80562113D01*
X101458543Y-80159946D01*
X101515996Y-80045041D01*
X101573448Y-79987589D01*
X101688353Y-79930136D01*
X101803257Y-79930136D01*
X101918162Y-79987589D01*
X101975615Y-80045041D01*
X102033067Y-80159946D01*
X102033067Y-80562113D01*
X102665043Y-78723636D02*
X102665043Y-79413065D01*
X102665043Y-79068351D02*
X101458543Y-79068351D01*
X101630900Y-79183255D01*
X101745805Y-79298160D01*
X101803257Y-79413065D01*
%TO.C,R2*%
X185873378Y-118783769D02*
X185471211Y-118209245D01*
X185183949Y-118783769D02*
X185183949Y-117577269D01*
X185643568Y-117577269D01*
X185758473Y-117634722D01*
X185815926Y-117692174D01*
X185873378Y-117807079D01*
X185873378Y-117979436D01*
X185815926Y-118094341D01*
X185758473Y-118151793D01*
X185643568Y-118209245D01*
X185183949Y-118209245D01*
X186332997Y-117692174D02*
X186390449Y-117634722D01*
X186505354Y-117577269D01*
X186792616Y-117577269D01*
X186907521Y-117634722D01*
X186964973Y-117692174D01*
X187022426Y-117807079D01*
X187022426Y-117921983D01*
X186964973Y-118094341D01*
X186275545Y-118783769D01*
X187022426Y-118783769D01*
%TO.C,C5*%
X183487528Y-122631742D02*
X183430076Y-122689195D01*
X183257718Y-122746647D01*
X183142814Y-122746647D01*
X182970457Y-122689195D01*
X182855552Y-122574290D01*
X182798099Y-122459385D01*
X182740647Y-122229576D01*
X182740647Y-122057219D01*
X182798099Y-121827409D01*
X182855552Y-121712504D01*
X182970457Y-121597600D01*
X183142814Y-121540147D01*
X183257718Y-121540147D01*
X183430076Y-121597600D01*
X183487528Y-121655052D01*
X184579123Y-121540147D02*
X184004599Y-121540147D01*
X183947147Y-122114671D01*
X184004599Y-122057219D01*
X184119504Y-121999766D01*
X184406766Y-121999766D01*
X184521671Y-122057219D01*
X184579123Y-122114671D01*
X184636576Y-122229576D01*
X184636576Y-122516838D01*
X184579123Y-122631742D01*
X184521671Y-122689195D01*
X184406766Y-122746647D01*
X184119504Y-122746647D01*
X184004599Y-122689195D01*
X183947147Y-122631742D01*
%TO.C,C6*%
X110208528Y-127965742D02*
X110151076Y-128023195D01*
X109978718Y-128080647D01*
X109863814Y-128080647D01*
X109691457Y-128023195D01*
X109576552Y-127908290D01*
X109519099Y-127793385D01*
X109461647Y-127563576D01*
X109461647Y-127391219D01*
X109519099Y-127161409D01*
X109576552Y-127046504D01*
X109691457Y-126931600D01*
X109863814Y-126874147D01*
X109978718Y-126874147D01*
X110151076Y-126931600D01*
X110208528Y-126989052D01*
X111242671Y-126874147D02*
X111012861Y-126874147D01*
X110897957Y-126931600D01*
X110840504Y-126989052D01*
X110725599Y-127161409D01*
X110668147Y-127391219D01*
X110668147Y-127850838D01*
X110725599Y-127965742D01*
X110783052Y-128023195D01*
X110897957Y-128080647D01*
X111127766Y-128080647D01*
X111242671Y-128023195D01*
X111300123Y-127965742D01*
X111357576Y-127850838D01*
X111357576Y-127563576D01*
X111300123Y-127448671D01*
X111242671Y-127391219D01*
X111127766Y-127333766D01*
X110897957Y-127333766D01*
X110783052Y-127391219D01*
X110725599Y-127448671D01*
X110668147Y-127563576D01*
%TD*%
M02*
