%TF.GenerationSoftware,KiCad,Pcbnew,5.1.10-88a1d61d58~90~ubuntu20.04.1*%
%TF.CreationDate,2021-08-01T14:30:54-04:00*%
%TF.ProjectId,MegaShield,4d656761-5368-4696-956c-642e6b696361,rev?*%
%TF.SameCoordinates,Original*%
%TF.FileFunction,Soldermask,Bot*%
%TF.FilePolarity,Negative*%
%FSLAX46Y46*%
G04 Gerber Fmt 4.6, Leading zero omitted, Abs format (unit mm)*
G04 Created by KiCad (PCBNEW 5.1.10-88a1d61d58~90~ubuntu20.04.1) date 2021-08-01 14:30:54*
%MOMM*%
%LPD*%
G01*
G04 APERTURE LIST*
%ADD10O,1.828800X3.352800*%
%ADD11O,4.304800X2.304800*%
%ADD12O,2.304800X4.304800*%
%ADD13C,1.712800*%
%ADD14C,2.184400*%
%ADD15C,1.828800*%
G04 APERTURE END LIST*
D10*
%TO.C,PWML1*%
X154698600Y-128963600D03*
X152158600Y-128963600D03*
X149618600Y-128963600D03*
X147078600Y-128963600D03*
X144538600Y-128963600D03*
X141998600Y-128963600D03*
X139458600Y-128963600D03*
X136918600Y-128963600D03*
%TD*%
%TO.C,PWMH1*%
X176288600Y-128963600D03*
X173748600Y-128963600D03*
X171208600Y-128963600D03*
X168668600Y-128963600D03*
X166128600Y-128963600D03*
X163588600Y-128963600D03*
X161048600Y-128963600D03*
X158508600Y-128963600D03*
%TD*%
%TO.C,COMMUNICATION2*%
X131838600Y-128963600D03*
X129298600Y-128963600D03*
X126758600Y-128963600D03*
X124218600Y-128963600D03*
X121678600Y-128963600D03*
X119138600Y-128963600D03*
X116598600Y-128963600D03*
X114058600Y-128963600D03*
%TD*%
D11*
%TO.C,J1*%
X187457405Y-120362857D03*
D12*
X190447390Y-125092725D03*
X184470644Y-125087600D03*
%TD*%
D13*
%TO.C,U$1*%
X107149556Y-107475150D03*
X107149556Y-104975150D03*
X107149556Y-102475150D03*
X107149556Y-99975150D03*
X107149556Y-97475150D03*
X107149556Y-94975150D03*
%TD*%
%TO.C,U$12*%
X155546209Y-107475150D03*
X155546209Y-104975150D03*
X155546209Y-102475150D03*
X155546209Y-99975150D03*
X155546209Y-97475150D03*
X155546209Y-94975150D03*
%TD*%
D14*
%TO.C,J2*%
X131832740Y-125661600D03*
X131578740Y-123121600D03*
X131832740Y-120581600D03*
%TD*%
%TO.C,J3*%
X126752740Y-125661600D03*
X126498740Y-123121600D03*
X126752740Y-120581600D03*
%TD*%
%TO.C,J4*%
X124212740Y-125661600D03*
X123958740Y-123121600D03*
X124212740Y-120581600D03*
%TD*%
%TO.C,J5*%
X129292740Y-125661600D03*
X129038740Y-123121600D03*
X129292740Y-120581600D03*
%TD*%
D13*
%TO.C,U$20*%
X161546318Y-107475150D03*
X161546318Y-104975150D03*
X161546318Y-102475150D03*
X161546318Y-99975150D03*
X161546318Y-97475150D03*
X161546318Y-94975150D03*
%TD*%
D14*
%TO.C,J6*%
X130286171Y-86099225D03*
X127746171Y-86353225D03*
X125206171Y-86099225D03*
%TD*%
%TO.C,J7*%
X130290112Y-88648532D03*
X127750112Y-88902532D03*
X125210112Y-88648532D03*
%TD*%
D10*
%TO.C,COMMUNICATION1*%
X149618600Y-80703600D03*
X147078600Y-80703600D03*
X144538600Y-80703600D03*
X141998600Y-80703600D03*
X139458600Y-80703600D03*
X136918600Y-80703600D03*
X134378600Y-80703600D03*
X131838600Y-80703600D03*
%TD*%
D15*
%TO.C,JP3*%
X106439712Y-126423913D03*
X106439712Y-128963913D03*
X103899712Y-126423913D03*
X103899712Y-128963913D03*
%TD*%
%TO.C,JP4*%
X106441175Y-85784582D03*
X106441175Y-88324582D03*
X103901175Y-85784582D03*
X103901175Y-88324582D03*
%TD*%
M02*
